<?xml version="1.0" encoding="UTF-8"?>
<!DOCTYPE svg PUBLIC "-//W3C//DTD SVG 1.1//EN" "http://www.w3.org/Graphics/SVG/1.1/DTD/svg11.dtd">
<!-- Creator: CorelDRAW 2021.5 -->
<svg xmlns="http://www.w3.org/2000/svg" xml:space="preserve" width="100%" height="100%" version="1.1" style="shape-rendering:geometricPrecision; text-rendering:geometricPrecision; image-rendering:optimizeQuality; fill-rule:evenodd; clip-rule:evenodd"
viewBox="0 0 14688.72 3057.08"
 xmlns:xlink="http://www.w3.org/1999/xlink"
 xmlns:xodm="http://www.corel.com/coreldraw/odm/2003">
 <defs>
  <style type="text/css">
   <![CDATA[
    .fil1 {fill:#2B2A29;fill-rule:nonzero}
    .fil0 {fill:#47A5A0;fill-rule:nonzero}
    .fil2 {fill:url(#id0);fill-rule:nonzero}
   ]]>
  </style>
  <linearGradient id="id0" gradientUnits="userSpaceOnUse" x1="-4.71" y1="1477.66" x2="14074.73" y2="1477.66">
   <stop offset="0" style="stop-opacity:1; stop-color:#47A5A0"/>
   <stop offset="1" style="stop-opacity:1; stop-color:#D4D3D4"/>
  </linearGradient>
 </defs>
 <g id="Слой_x0020_1">
  <metadata id="CorelCorpID_0Corel-Layer"/>
  <g id="_3328745405840">
   <g>
    <path class="fil0" d="M4466.17 237.67c0,28.59 -4.41,53.7 -13.36,75.61 -8.81,22.04 -21.77,40.48 -38.87,55.44 -16.96,15.1 -37.8,26.45 -62.52,34.33 -24.71,7.88 -53.83,11.76 -87.36,11.76l-42.35 0 0 161.5c0,2.68 -0.8,4.95 -2.54,7.08 -1.74,2.01 -4.54,3.74 -8.41,5.08 -3.88,1.34 -9.09,2.27 -15.63,3.07 -6.42,0.8 -14.83,1.2 -24.85,1.2 -9.89,0 -18.17,-0.4 -24.85,-1.2 -6.68,-0.8 -11.89,-1.87 -15.76,-3.07 -3.88,-1.34 -6.68,-3.07 -8.15,-5.08 -1.6,-2.13 -2.41,-4.54 -2.41,-7.08l0 -455.66c0,-12.29 3.21,-21.51 9.62,-27.65 6.42,-6.15 14.83,-9.22 25.25,-9.22l119.43 0c12.02,0 23.51,0.4 34.33,1.34 10.82,0.93 23.78,2.93 39.01,5.87 15.09,3.08 30.45,8.55 45.95,16.7 15.5,8.02 28.86,18.3 39.81,30.73 10.95,12.42 19.37,26.85 25.11,43.55 5.75,16.56 8.55,35.13 8.55,55.7zm-107.4 7.48c0,-17.76 -3.21,-32.46 -9.49,-43.95 -6.27,-11.49 -14.02,-20.04 -23.24,-25.51 -9.22,-5.48 -18.84,-8.95 -28.85,-10.42 -10.16,-1.47 -20.58,-2.14 -31.4,-2.14l-44.08 0 0 172.33 46.49 0c16.56,0 30.32,-2.27 41.54,-6.68 11.09,-4.41 20.31,-10.69 27.39,-18.7 7.08,-7.89 12.42,-17.5 16.16,-28.59 3.61,-11.09 5.48,-23.25 5.48,-36.34zm463.3 304.71c0,7.62 -0.26,13.9 -0.93,19.11 -0.67,5.07 -1.6,9.21 -2.94,12.29 -1.34,3.2 -2.94,5.47 -4.94,6.94 -1.87,1.47 -4.14,2.14 -6.42,2.14l-254.08 0c-8.55,0 -15.76,-2.54 -21.64,-7.61 -5.88,-5.08 -8.82,-13.36 -8.82,-24.85l0 -441.64c0,-11.49 2.94,-19.77 8.82,-24.85 5.88,-5.07 13.09,-7.61 21.64,-7.61l252.88 0c2.27,0 4.41,0.67 6.28,2 1.74,1.34 3.34,3.61 4.68,6.82 1.2,3.34 2.27,7.48 2.94,12.55 0.66,5.21 0.93,11.63 0.93,19.51 0,7.34 -0.27,13.49 -0.93,18.7 -0.67,5.08 -1.61,9.22 -2.94,12.29 -1.34,3.21 -2.94,5.48 -4.68,6.95 -1.87,1.46 -4.01,2.13 -6.28,2.13l-180.74 0 0 123.44 152.29 0c2.4,0 4.54,0.66 6.41,2.13 2,1.47 3.61,3.61 4.94,6.68 1.34,2.94 2.27,6.95 2.94,12.16 0.67,5.08 0.94,11.22 0.94,18.44 0,7.61 -0.27,13.89 -0.94,18.83 -0.67,4.94 -1.6,8.95 -2.94,11.89 -1.33,3.07 -2.94,5.21 -4.94,6.41 -1.87,1.34 -4.01,2.01 -6.41,2.01l-152.29 0 0 142.67 181.94 0c2.41,0 4.55,0.66 6.42,2.13 2,1.47 3.6,3.74 4.94,6.95 1.34,3.07 2.27,7.21 2.94,12.29 0.67,5.21 0.93,11.49 0.93,19.1zm354.84 -423.6c0,7.75 -0.27,14.29 -0.94,19.64 -0.66,5.34 -1.73,9.62 -2.93,12.82 -1.34,3.34 -2.94,5.61 -4.95,7.08 -2,1.47 -4.27,2.14 -6.81,2.14l-167.92 0 0 409.17c0,2.54 -0.8,4.81 -2.54,6.82 -1.73,2 -4.54,3.6 -8.41,4.94 -3.88,1.2 -9.22,2.27 -15.63,2.94 -6.55,0.67 -14.96,0.93 -25.12,0.93 -9.88,0 -18.16,-0.26 -24.84,-0.93 -6.68,-0.67 -12.03,-1.74 -15.9,-2.94 -3.88,-1.34 -6.68,-2.94 -8.42,-4.94 -1.73,-2.01 -2.54,-4.28 -2.54,-6.82l0 -460.87c0,-10.95 2.81,-19.1 8.42,-24.45 5.61,-5.34 12.96,-8.01 22.18,-8.01l240.72 0c5.21,0 9.08,3.21 11.76,9.75 2.53,6.55 3.87,17.37 3.87,32.73zm448.08 450.85c0,2.54 -0.81,4.81 -2.54,6.82 -1.74,2 -4.54,3.6 -8.42,4.94 -3.87,1.2 -9.22,2.27 -15.89,2.94 -6.68,0.67 -14.97,0.93 -24.85,0.93 -9.89,0 -18.17,-0.26 -24.85,-0.93 -6.68,-0.67 -11.89,-1.74 -15.63,-2.94 -3.87,-1.34 -6.54,-2.94 -8.01,-4.94 -1.61,-2.01 -2.41,-4.28 -2.41,-6.82l0 -267.03c0,-10.16 0.14,-20.18 0.4,-29.93 0.27,-9.88 0.67,-18.57 1.2,-26.05l-0.8 0c-2.13,3.61 -4.54,7.88 -7.48,12.69 -2.94,4.81 -6.01,9.89 -9.22,15.23 -3.33,5.35 -6.81,10.82 -10.41,16.43 -3.75,5.61 -7.35,11.09 -10.96,16.3l-175.93 262.77c-2.14,2.8 -4.28,5.34 -6.41,7.34 -2.28,2.14 -5.08,3.74 -8.69,4.95 -3.47,1.2 -7.75,2 -12.82,2.4 -5.08,0.4 -11.76,0.53 -19.77,0.53 -10.16,0 -18.44,-0.26 -24.58,-0.93 -6.28,-0.67 -11.22,-1.74 -14.7,-2.94 -3.6,-1.34 -6.01,-3.07 -7.21,-5.08 -1.34,-2.13 -2.01,-4.67 -2.01,-7.48l0 -479.31c0,-2.53 0.81,-4.8 2.54,-6.81 1.74,-2 4.54,-3.61 8.55,-4.94 4.01,-1.2 9.35,-2.27 15.9,-2.94 6.41,-0.67 14.69,-0.94 24.58,-0.94 10.02,0 18.43,0.27 24.85,0.94 6.54,0.67 11.75,1.74 15.63,2.94 3.87,1.33 6.68,2.94 8.14,4.94 1.61,2.01 2.41,4.28 2.41,6.81l0 268.65c0,8.28 -0.13,17.23 -0.4,26.58 -0.27,9.49 -0.67,18.57 -1.2,27.39l0.8 0c4.54,-7.75 10.15,-17.24 16.96,-28.19 6.82,-10.95 13.9,-21.64 21.11,-32.06l176.2 -262.77c1.87,-2.53 3.74,-4.81 5.88,-6.81 2.14,-2 4.94,-3.61 8.41,-4.94 3.48,-1.2 7.89,-2.14 13.1,-2.67 5.21,-0.54 11.89,-0.81 20.03,-0.81 9.89,0 17.9,0.27 24.05,0.94 6.14,0.67 10.95,1.74 14.69,2.94 3.61,1.33 6.15,2.94 7.62,4.94 1.47,2.01 2.14,4.41 2.14,7.22l0 479.7zm437.39 -63.32c0,6.55 -0.13,12.16 -0.54,16.7 -0.4,4.55 -1.06,8.55 -1.87,11.76 -0.66,3.34 -1.73,6.14 -3.07,8.55 -1.33,2.27 -3.34,4.94 -6.28,7.88 -2.8,2.94 -8.41,6.81 -16.56,11.49 -8.28,4.54 -18.3,9.08 -30.19,13.36 -11.89,4.14 -25.38,7.75 -40.61,10.55 -15.23,2.81 -31.8,4.28 -49.56,4.28 -34.6,0 -65.86,-5.35 -93.78,-16.04 -27.92,-10.68 -51.7,-26.71 -71.2,-47.95 -19.64,-21.24 -34.6,-47.69 -45.02,-79.62 -10.42,-31.79 -15.63,-68.8 -15.63,-111.01 0,-43.02 5.74,-81.22 17.23,-114.62 11.49,-33.4 27.52,-61.45 48.09,-84.16 20.58,-22.71 45.29,-39.81 74.14,-51.56 28.72,-11.76 60.52,-17.64 95.25,-17.64 14.03,0 27.52,1.21 40.61,3.61 13.09,2.27 25.12,5.34 36.2,9.22 11.09,3.74 20.98,8.15 29.93,13.09 8.81,5.08 15.09,9.35 18.57,12.82 3.47,3.61 5.87,6.55 7.21,8.82 1.33,2.41 2.4,5.34 3.07,8.95 0.8,3.74 1.47,8.02 1.87,12.96 0.4,4.94 0.54,10.95 0.54,18.3 0,7.75 -0.27,14.43 -0.81,19.91 -0.53,5.47 -1.46,9.88 -2.67,13.22 -1.33,3.34 -2.94,5.88 -4.67,7.35 -1.87,1.6 -4.01,2.4 -6.28,2.4 -3.88,0 -8.82,-2.27 -14.83,-6.81 -6.01,-4.54 -13.76,-9.62 -23.24,-15.23 -9.49,-5.61 -20.84,-10.69 -34.07,-15.23 -13.09,-4.54 -28.72,-6.81 -47.02,-6.81 -20.04,0 -37.94,4.14 -53.7,12.29 -15.77,8.28 -29.12,19.9 -40.21,35.13 -11.09,15.36 -19.51,33.8 -25.25,55.44 -5.74,21.51 -8.55,45.95 -8.55,73.07 0,29.66 3.07,55.44 9.22,77.22 6.14,21.64 14.83,39.67 26.18,53.7 11.22,14.02 24.98,24.58 41.01,31.39 16.03,6.95 34.07,10.42 54.1,10.42 18.17,0 33.94,-2.14 47.29,-6.41 13.23,-4.28 24.58,-9.09 34.07,-14.16 9.62,-5.21 17.37,-9.89 23.51,-14.03 6.15,-4.14 10.82,-6.28 14.29,-6.28 2.54,0 4.68,0.54 6.15,1.61 1.6,1.06 2.94,3.07 4.01,6.27 0.93,3.08 1.73,7.48 2.27,13.1 0.53,5.74 0.8,13.22 0.8,22.7zm387.29 -387.8c0,7.62 -0.26,14.03 -0.93,19.51 -0.67,5.34 -1.6,9.61 -2.94,12.82 -1.34,3.34 -2.94,5.74 -4.94,7.21 -1.87,1.61 -4.14,2.41 -6.42,2.41l-126.64 0 0 408.37c0,2.54 -0.8,4.95 -2.53,7.08 -1.74,2.01 -4.55,3.74 -8.42,5.08 -3.87,1.2 -9.22,2.27 -15.9,3.07 -6.68,0.8 -14.96,1.2 -24.84,1.2 -9.89,0 -18.17,-0.4 -24.85,-1.2 -6.68,-0.8 -12.02,-1.87 -15.9,-3.07 -3.87,-1.34 -6.68,-3.07 -8.41,-5.08 -1.74,-2.13 -2.54,-4.54 -2.54,-7.08l0 -408.37 -126.64 0c-2.54,0 -4.81,-0.8 -6.68,-2.41 -1.74,-1.47 -3.34,-3.87 -4.68,-7.21 -1.2,-3.21 -2.27,-7.48 -2.94,-12.82 -0.66,-5.48 -0.93,-11.89 -0.93,-19.51 0,-7.75 0.27,-14.42 0.93,-19.9 0.67,-5.48 1.74,-9.89 2.94,-13.09 1.34,-3.34 2.94,-5.61 4.68,-7.08 1.87,-1.47 4.14,-2.14 6.68,-2.14l356.67 0c2.28,0 4.41,0.67 6.42,2.14 2,1.47 3.6,3.74 4.94,7.08 1.34,3.2 2.27,7.61 2.94,13.09 0.67,5.48 0.93,12.15 0.93,19.9zm383.96 111.68c0,28.59 -4.41,53.7 -13.36,75.61 -8.81,22.04 -21.77,40.48 -38.87,55.44 -16.96,15.1 -37.8,26.45 -62.52,34.33 -24.71,7.88 -53.83,11.76 -87.36,11.76l-42.35 0 0 161.5c0,2.68 -0.8,4.95 -2.54,7.08 -1.74,2.01 -4.54,3.74 -8.41,5.08 -3.88,1.34 -9.09,2.27 -15.63,3.07 -6.42,0.8 -14.83,1.2 -24.85,1.2 -9.89,0 -18.17,-0.4 -24.85,-1.2 -6.68,-0.8 -11.89,-1.87 -15.76,-3.07 -3.88,-1.34 -6.68,-3.07 -8.15,-5.08 -1.6,-2.13 -2.41,-4.54 -2.41,-7.08l0 -455.66c0,-12.29 3.21,-21.51 9.62,-27.65 6.42,-6.15 14.83,-9.22 25.25,-9.22l119.43 0c12.02,0 23.51,0.4 34.33,1.34 10.82,0.93 23.78,2.93 39.01,5.87 15.09,3.08 30.45,8.55 45.95,16.7 15.5,8.02 28.86,18.3 39.81,30.73 10.95,12.42 19.37,26.85 25.11,43.55 5.75,16.56 8.55,35.13 8.55,55.7zm-107.4 7.48c0,-17.76 -3.21,-32.46 -9.49,-43.95 -6.27,-11.49 -14.02,-20.04 -23.24,-25.51 -9.22,-5.48 -18.84,-8.95 -28.85,-10.42 -10.16,-1.47 -20.58,-2.14 -31.4,-2.14l-44.08 0 0 172.33 46.49 0c16.56,0 30.32,-2.27 41.54,-6.68 11.09,-4.41 20.31,-10.69 27.39,-18.7 7.08,-7.89 12.42,-17.5 16.16,-28.59 3.61,-11.09 5.48,-23.25 5.48,-36.34zm533.7 306.85c3.07,9.35 5.08,16.83 5.88,22.31 0.8,5.48 -0.27,9.62 -3.07,12.42 -2.94,2.67 -8.02,4.41 -15.37,5.08 -7.21,0.67 -17.36,0.93 -30.05,0.93 -13.36,0 -23.78,-0.13 -31.13,-0.53 -7.48,-0.4 -13.09,-1.2 -17.1,-2.4 -3.87,-1.21 -6.54,-2.81 -8.15,-4.95 -1.6,-2 -2.94,-4.81 -3.87,-8.15l-33.26 -101.79 -191.03 0 -31.93 98.99c-1.07,3.74 -2.4,6.81 -4.14,9.22 -1.6,2.53 -4.41,4.4 -8.15,5.87 -3.74,1.47 -9.08,2.41 -16.03,2.94 -6.95,0.54 -16.03,0.8 -27.25,0.8 -12.02,0 -21.38,-0.4 -28.19,-1.2 -6.81,-0.8 -11.49,-2.67 -14.02,-5.61 -2.68,-3.07 -3.61,-7.35 -2.81,-12.82 0.8,-5.48 2.81,-12.69 5.88,-21.91l156.03 -449.52c1.47,-4.41 3.34,-8.02 5.47,-10.69 2.01,-2.8 5.35,-4.81 9.89,-6.28 4.67,-1.46 10.95,-2.4 19.1,-2.8 8.02,-0.4 18.7,-0.54 32.06,-0.54 15.37,0 27.66,0.14 36.74,0.54 9.22,0.4 16.3,1.34 21.37,2.8 5.08,1.47 8.69,3.61 10.96,6.42 2.13,2.94 4.14,6.81 5.61,11.75l156.56 449.12zm-232.44 -371.9l-0.4 0 -70.53 215.47 142.13 0 -71.2 -215.47zm561.89 -54.11c0,7.62 -0.26,14.03 -0.93,19.51 -0.67,5.34 -1.6,9.61 -2.94,12.82 -1.34,3.34 -2.94,5.74 -4.94,7.21 -1.87,1.61 -4.14,2.41 -6.42,2.41l-126.64 0 0 408.37c0,2.54 -0.8,4.95 -2.53,7.08 -1.74,2.01 -4.55,3.74 -8.42,5.08 -3.87,1.2 -9.22,2.27 -15.9,3.07 -6.68,0.8 -14.96,1.2 -24.84,1.2 -9.89,0 -18.17,-0.4 -24.85,-1.2 -6.68,-0.8 -12.02,-1.87 -15.9,-3.07 -3.87,-1.34 -6.68,-3.07 -8.41,-5.08 -1.74,-2.13 -2.54,-4.54 -2.54,-7.08l0 -408.37 -126.64 0c-2.54,0 -4.81,-0.8 -6.68,-2.41 -1.74,-1.47 -3.34,-3.87 -4.68,-7.21 -1.2,-3.21 -2.27,-7.48 -2.94,-12.82 -0.66,-5.48 -0.93,-11.89 -0.93,-19.51 0,-7.75 0.27,-14.42 0.93,-19.9 0.67,-5.48 1.74,-9.89 2.94,-13.09 1.34,-3.34 2.94,-5.61 4.68,-7.08 1.87,-1.47 4.14,-2.14 6.68,-2.14l356.67 0c2.28,0 4.41,0.67 6.42,2.14 2,1.47 3.6,3.74 4.94,7.08 1.34,3.2 2.27,7.61 2.94,13.09 0.67,5.48 0.93,12.15 0.93,19.9zm474.14 205.19c0,41.95 -5.21,79.49 -15.63,112.62 -10.42,33.12 -25.92,61.31 -46.62,84.29 -20.58,23.11 -46.09,40.74 -76.41,52.9 -30.46,12.16 -65.6,18.17 -105.54,18.17 -39.41,0 -73.74,-5.21 -102.99,-15.5 -29.39,-10.29 -53.84,-25.92 -73.48,-47.16 -19.5,-21.1 -34.19,-47.95 -43.95,-80.55 -9.75,-32.59 -14.69,-71.2 -14.69,-115.82 0,-40.88 5.21,-77.75 15.63,-110.47 10.42,-32.73 25.91,-60.52 46.62,-83.5 20.57,-22.97 46.09,-40.61 76.41,-52.76 30.46,-12.29 65.73,-18.44 105.94,-18.44 38.34,0 72.13,5.08 101.52,15.23 29.26,10.15 53.84,25.78 73.47,47.02 19.78,21.11 34.6,47.69 44.62,79.89 10.02,32.33 15.1,70.27 15.1,114.08zm-108.21 5.21c0,-26.58 -2.13,-50.76 -6.28,-72.54 -4.14,-21.77 -11.22,-40.47 -21.24,-55.97 -10.01,-15.49 -23.37,-27.52 -40.07,-36.07 -16.7,-8.41 -37.54,-12.69 -62.52,-12.69 -25.25,0 -46.35,4.81 -63.19,14.3 -16.96,9.48 -30.72,22.3 -41.14,38.2 -10.42,15.9 -17.77,34.47 -22.04,55.71 -4.28,21.37 -6.42,43.81 -6.42,67.59 0,27.65 2.14,52.5 6.28,74.54 4.14,22.05 11.22,40.88 21.11,56.64 9.89,15.63 23.11,27.52 39.81,35.81 16.7,8.14 37.67,12.29 62.92,12.29 25.25,0 46.35,-4.68 63.18,-14.16 16.97,-9.36 30.73,-22.18 41.15,-38.34 10.42,-16.17 17.77,-35 22.04,-56.51 4.28,-21.51 6.41,-44.49 6.41,-68.8zm518.74 -98.72c0,28.59 -4.41,53.7 -13.36,75.61 -8.81,22.04 -21.77,40.48 -38.87,55.44 -16.96,15.1 -37.8,26.45 -62.52,34.33 -24.71,7.88 -53.83,11.76 -87.36,11.76l-42.35 0 0 161.5c0,2.68 -0.8,4.95 -2.54,7.08 -1.74,2.01 -4.54,3.74 -8.41,5.08 -3.88,1.34 -9.09,2.27 -15.63,3.07 -6.42,0.8 -14.83,1.2 -24.85,1.2 -9.89,0 -18.17,-0.4 -24.85,-1.2 -6.68,-0.8 -11.89,-1.87 -15.76,-3.07 -3.88,-1.34 -6.68,-3.07 -8.15,-5.08 -1.6,-2.13 -2.41,-4.54 -2.41,-7.08l0 -455.66c0,-12.29 3.21,-21.51 9.62,-27.65 6.42,-6.15 14.83,-9.22 25.25,-9.22l119.43 0c12.02,0 23.51,0.4 34.33,1.34 10.82,0.93 23.78,2.93 39.01,5.87 15.09,3.08 30.45,8.55 45.95,16.7 15.5,8.02 28.86,18.3 39.81,30.73 10.95,12.42 19.37,26.85 25.11,43.55 5.75,16.56 8.55,35.13 8.55,55.7zm-107.4 7.48c0,-17.76 -3.21,-32.46 -9.49,-43.95 -6.27,-11.49 -14.02,-20.04 -23.24,-25.51 -9.22,-5.48 -18.84,-8.95 -28.85,-10.42 -10.16,-1.47 -20.58,-2.14 -31.4,-2.14l-44.08 0 0 172.33 46.49 0c16.56,0 30.32,-2.27 41.54,-6.68 11.09,-4.41 20.31,-10.69 27.39,-18.7 7.08,-7.89 12.42,-17.5 16.16,-28.59 3.61,-11.09 5.48,-23.25 5.48,-36.34zm-7924.44 1177.34c0,6.55 -0.13,12.16 -0.54,16.7 -0.4,4.55 -1.06,8.55 -1.87,11.76 -0.66,3.34 -1.73,6.14 -3.07,8.55 -1.33,2.27 -3.34,4.94 -6.28,7.88 -2.8,2.94 -8.41,6.81 -16.56,11.49 -8.28,4.54 -18.3,9.08 -30.19,13.36 -11.89,4.14 -25.38,7.75 -40.61,10.55 -15.23,2.81 -31.8,4.28 -49.56,4.28 -34.6,0 -65.86,-5.35 -93.78,-16.04 -27.92,-10.68 -51.7,-26.71 -71.2,-47.95 -19.64,-21.24 -34.6,-47.69 -45.02,-79.62 -10.42,-31.79 -15.63,-68.8 -15.63,-111.01 0,-43.02 5.74,-81.22 17.23,-114.62 11.49,-33.4 27.52,-61.45 48.09,-84.16 20.58,-22.71 45.29,-39.81 74.14,-51.56 28.72,-11.76 60.52,-17.64 95.25,-17.64 14.03,0 27.52,1.21 40.61,3.61 13.09,2.27 25.12,5.34 36.2,9.22 11.09,3.74 20.98,8.15 29.93,13.09 8.81,5.08 15.09,9.35 18.57,12.82 3.47,3.61 5.87,6.55 7.21,8.82 1.33,2.41 2.4,5.34 3.07,8.95 0.8,3.74 1.47,8.02 1.87,12.96 0.4,4.94 0.54,10.95 0.54,18.3 0,7.75 -0.27,14.43 -0.81,19.91 -0.53,5.47 -1.46,9.88 -2.67,13.22 -1.33,3.34 -2.94,5.88 -4.67,7.35 -1.87,1.6 -4.01,2.4 -6.28,2.4 -3.88,0 -8.82,-2.27 -14.83,-6.81 -6.01,-4.54 -13.76,-9.62 -23.24,-15.23 -9.49,-5.61 -20.84,-10.69 -34.07,-15.23 -13.09,-4.54 -28.72,-6.81 -47.02,-6.81 -20.04,0 -37.94,4.14 -53.7,12.29 -15.77,8.28 -29.12,19.9 -40.21,35.13 -11.09,15.36 -19.51,33.8 -25.25,55.44 -5.74,21.51 -8.55,45.95 -8.55,73.07 0,29.66 3.07,55.44 9.22,77.22 6.14,21.64 14.83,39.67 26.18,53.7 11.22,14.02 24.98,24.58 41.01,31.39 16.03,6.95 34.07,10.42 54.1,10.42 18.17,0 33.94,-2.14 47.29,-6.41 13.23,-4.28 24.58,-9.09 34.07,-14.16 9.62,-5.21 17.37,-9.89 23.51,-14.03 6.15,-4.14 10.82,-6.28 14.29,-6.28 2.54,0 4.68,0.54 6.15,1.61 1.6,1.06 2.94,3.07 4.01,6.27 0.93,3.08 1.73,7.48 2.27,13.1 0.53,5.74 0.8,13.22 0.8,22.7zm445 63.32c0,2.54 -0.8,4.81 -2.4,6.82 -1.47,2 -4.28,3.6 -8.15,4.94 -3.87,1.2 -9.08,2.27 -15.76,2.94 -6.68,0.67 -14.97,0.93 -24.72,0.93 -9.88,0 -18.17,-0.26 -24.84,-0.93 -6.68,-0.67 -11.89,-1.74 -15.77,-2.94 -3.87,-1.34 -6.68,-2.94 -8.41,-4.94 -1.74,-2.01 -2.54,-4.28 -2.54,-6.82l0 -407.57 -189.16 0 0 407.57c0,2.54 -0.8,4.81 -2.54,6.82 -1.74,2 -4.54,3.6 -8.41,4.94 -3.88,1.2 -9.09,2.27 -15.63,2.94 -6.42,0.67 -14.83,0.93 -24.85,0.93 -9.89,0 -18.17,-0.26 -24.85,-0.93 -6.68,-0.67 -11.89,-1.74 -15.76,-2.94 -3.88,-1.34 -6.68,-2.94 -8.15,-4.94 -1.6,-2.01 -2.41,-4.28 -2.41,-6.82l0 -460.87c0,-10.95 2.81,-19.1 8.29,-24.45 5.47,-5.34 12.69,-8.01 21.77,-8.01l334.5 0c9.49,0 16.7,2.67 21.91,8.01 5.21,5.35 7.88,13.5 7.88,24.45l0 460.87zm386.89 -27.25c0,7.62 -0.26,13.9 -0.93,19.11 -0.67,5.07 -1.6,9.21 -2.94,12.29 -1.34,3.2 -2.94,5.47 -4.94,6.94 -1.87,1.47 -4.14,2.14 -6.42,2.14l-254.08 0c-8.55,0 -15.76,-2.54 -21.64,-7.61 -5.88,-5.08 -8.82,-13.36 -8.82,-24.85l0 -441.64c0,-11.49 2.94,-19.77 8.82,-24.85 5.88,-5.07 13.09,-7.61 21.64,-7.61l252.88 0c2.27,0 4.41,0.67 6.28,2 1.74,1.34 3.34,3.61 4.68,6.82 1.2,3.34 2.27,7.48 2.94,12.55 0.66,5.21 0.93,11.63 0.93,19.51 0,7.34 -0.27,13.49 -0.93,18.7 -0.67,5.08 -1.61,9.22 -2.94,12.29 -1.34,3.21 -2.94,5.48 -4.68,6.95 -1.87,1.46 -4.01,2.13 -6.28,2.13l-180.74 0 0 123.44 152.29 0c2.4,0 4.54,0.66 6.41,2.13 2,1.47 3.61,3.61 4.94,6.68 1.34,2.94 2.27,6.95 2.94,12.16 0.67,5.08 0.94,11.22 0.94,18.44 0,7.61 -0.27,13.89 -0.94,18.83 -0.67,4.94 -1.6,8.95 -2.94,11.89 -1.33,3.07 -2.94,5.21 -4.94,6.41 -1.87,1.34 -4.01,2.01 -6.41,2.01l-152.29 0 0 142.67 181.94 0c2.41,0 4.55,0.66 6.42,2.13 2,1.47 3.6,3.74 4.94,6.95 1.34,3.07 2.27,7.21 2.94,12.29 0.67,5.21 0.93,11.49 0.93,19.1zm522.36 159.51c0,2.67 -0.67,4.8 -2.01,6.68 -1.2,1.73 -3.47,3.2 -6.81,4.4 -3.21,1.21 -7.75,2.14 -13.63,2.81 -5.87,0.67 -13.22,0.93 -22.04,0.93 -8.81,0 -16.16,-0.26 -21.91,-0.93 -5.74,-0.67 -10.28,-1.6 -13.76,-2.81 -3.6,-1.2 -6.01,-2.67 -7.48,-4.4 -1.47,-1.88 -2.13,-4.15 -2.13,-6.68l0 -119.03 -334.91 0c-9.21,0 -16.43,-2.67 -21.77,-8.02 -5.34,-5.34 -8.02,-13.49 -8.02,-24.44l0 -460.88c0,-2.53 0.81,-4.8 2.54,-6.81 1.74,-2 4.54,-3.61 8.42,-4.94 3.87,-1.2 9.08,-2.27 15.76,-2.94 6.68,-0.67 14.96,-0.94 24.85,-0.94 10.02,0 18.43,0.27 24.85,0.94 6.54,0.67 11.75,1.74 15.63,2.94 3.87,1.33 6.68,2.94 8.14,4.94 1.61,2.01 2.41,4.28 2.41,6.81l0 408.38 187.56 0 0 -408.38c0,-2.53 0.8,-4.8 2.53,-6.81 1.74,-2 4.55,-3.61 8.42,-4.94 3.87,-1.2 9.08,-2.27 15.76,-2.94 6.68,-0.67 14.96,-0.94 24.85,-0.94 10.02,0 18.43,0.27 24.85,0.94 6.54,0.67 11.75,1.74 15.63,2.94 3.87,1.33 6.68,2.94 8.15,4.94 1.6,2.01 2.4,4.28 2.4,6.81l0 408.38 44.48 0c6.55,0 11.09,1.47 13.5,4.54 2.53,2.94 3.74,8.42 3.74,16.57l0 182.88zm461.3 -132.26c0,2.54 -0.81,4.81 -2.54,6.82 -1.74,2 -4.54,3.6 -8.42,4.94 -3.87,1.2 -9.22,2.27 -15.89,2.94 -6.68,0.67 -14.97,0.93 -24.85,0.93 -9.89,0 -18.17,-0.26 -24.85,-0.93 -6.68,-0.67 -11.89,-1.74 -15.63,-2.94 -3.87,-1.34 -6.54,-2.94 -8.01,-4.94 -1.61,-2.01 -2.41,-4.28 -2.41,-6.82l0 -267.03c0,-10.16 0.14,-20.18 0.4,-29.93 0.27,-9.88 0.67,-18.57 1.2,-26.05l-0.8 0c-2.13,3.61 -4.54,7.88 -7.48,12.69 -2.94,4.81 -6.01,9.89 -9.22,15.23 -3.33,5.35 -6.81,10.82 -10.41,16.43 -3.75,5.61 -7.35,11.09 -10.96,16.3l-175.93 262.77c-2.14,2.8 -4.28,5.34 -6.41,7.34 -2.28,2.14 -5.08,3.74 -8.69,4.95 -3.47,1.2 -7.75,2 -12.82,2.4 -5.08,0.4 -11.76,0.53 -19.77,0.53 -10.16,0 -18.44,-0.26 -24.58,-0.93 -6.28,-0.67 -11.22,-1.74 -14.7,-2.94 -3.6,-1.34 -6.01,-3.07 -7.21,-5.08 -1.34,-2.13 -2.01,-4.67 -2.01,-7.48l0 -479.31c0,-2.53 0.81,-4.8 2.54,-6.81 1.74,-2 4.54,-3.61 8.55,-4.94 4.01,-1.2 9.35,-2.27 15.9,-2.94 6.41,-0.67 14.69,-0.94 24.58,-0.94 10.02,0 18.43,0.27 24.85,0.94 6.54,0.67 11.75,1.74 15.63,2.94 3.87,1.33 6.68,2.94 8.14,4.94 1.61,2.01 2.41,4.28 2.41,6.81l0 268.65c0,8.28 -0.13,17.23 -0.4,26.58 -0.27,9.49 -0.67,18.57 -1.2,27.39l0.8 0c4.54,-7.75 10.15,-17.24 16.96,-28.19 6.82,-10.95 13.9,-21.64 21.11,-32.06l176.2 -262.77c1.87,-2.53 3.74,-4.81 5.88,-6.81 2.14,-2 4.94,-3.61 8.41,-4.94 3.48,-1.2 7.89,-2.14 13.1,-2.67 5.21,-0.54 11.89,-0.81 20.03,-0.81 9.89,0 17.9,0.27 24.05,0.94 6.14,0.67 10.95,1.74 14.69,2.94 3.61,1.33 6.15,2.94 7.62,4.94 1.47,2.01 2.14,4.41 2.14,7.22l0 479.7z"/>
    <path class="fil0" d="M2759.67 1460.7c3.07,9.35 5.08,16.83 5.88,22.31 0.8,5.48 -0.27,9.62 -3.07,12.42 -2.94,2.67 -8.02,4.41 -15.37,5.08 -7.21,0.67 -17.36,0.93 -30.05,0.93 -13.36,0 -23.78,-0.13 -31.13,-0.53 -7.48,-0.4 -13.09,-1.2 -17.1,-2.4 -3.87,-1.21 -6.54,-2.81 -8.15,-4.95 -1.6,-2 -2.94,-4.81 -3.87,-8.15l-33.26 -101.79 -191.03 0 -31.93 98.99c-1.07,3.74 -2.4,6.81 -4.14,9.22 -1.6,2.53 -4.41,4.4 -8.15,5.87 -3.74,1.47 -9.08,2.41 -16.03,2.94 -6.95,0.54 -16.03,0.8 -27.25,0.8 -12.02,0 -21.38,-0.4 -28.19,-1.2 -6.81,-0.8 -11.49,-2.67 -14.02,-5.61 -2.68,-3.07 -3.61,-7.35 -2.81,-12.82 0.8,-5.48 2.81,-12.69 5.88,-21.91l156.03 -449.52c1.47,-4.41 3.34,-8.02 5.47,-10.69 2.01,-2.8 5.35,-4.81 9.89,-6.28 4.67,-1.46 10.95,-2.4 19.1,-2.8 8.02,-0.4 18.7,-0.54 32.06,-0.54 15.37,0 27.66,0.14 36.74,0.54 9.22,0.4 16.3,1.34 21.37,2.8 5.08,1.47 8.69,3.61 10.96,6.42 2.13,2.94 4.14,6.81 5.61,11.75l156.56 449.12zm-232.44 -371.9l-0.4 0 -70.53 215.47 142.13 0 -71.2 -215.47zm673.57 397.01c0,2.54 -0.8,4.81 -2.4,6.82 -1.47,2 -4.28,3.6 -8.15,4.94 -3.88,1.2 -9.22,2.27 -15.9,2.94 -6.68,0.67 -14.96,0.93 -24.85,0.93 -10.15,0 -18.56,-0.26 -25.11,-0.93 -6.41,-0.67 -11.76,-1.74 -15.63,-2.94 -3.87,-1.34 -6.68,-2.94 -8.15,-4.94 -1.6,-2.01 -2.4,-4.28 -2.4,-6.82l0 -409.17 -108.21 0c-7.35,59.85 -14.83,112.08 -22.44,156.83 -7.48,44.62 -15.63,82.96 -24.31,114.75 -8.55,31.93 -18.17,58.11 -28.46,78.42 -10.28,20.43 -22.17,36.6 -35.26,48.49 -13.23,11.89 -28.19,20.04 -44.89,24.44 -16.56,4.41 -35.53,6.68 -56.64,6.68 -4.01,0 -7.35,-0.53 -10.29,-1.6 -2.8,-0.93 -5.07,-2.94 -6.81,-5.88 -1.74,-2.8 -2.94,-6.81 -3.74,-12.02 -0.8,-5.21 -1.2,-11.89 -1.2,-19.9 0,-11.23 0.26,-20.31 0.8,-27.26 0.53,-6.81 1.47,-12.15 2.67,-15.89 1.34,-3.88 3.07,-6.42 5.21,-7.62 2,-1.33 4.54,-2 7.48,-2 8.02,0 15.9,-1.6 23.25,-4.94 7.48,-3.21 14.69,-9.62 21.64,-19.37 6.94,-9.62 13.62,-23.25 20.03,-40.75 6.42,-17.5 12.7,-40.47 18.84,-69.2 6.15,-28.58 12.29,-63.45 18.44,-104.59 6.14,-41.15 12.42,-90.04 18.7,-146.68 1.6,-13.36 4.67,-22.71 9.35,-28.06 4.67,-5.34 11.62,-8.01 20.7,-8.01l248.34 0c9.49,0 16.7,2.67 21.78,8.01 5.07,5.35 7.61,13.5 7.61,24.45l0 460.87zm499.11 0c0,2.54 -0.81,4.81 -2.54,6.82 -1.74,2 -4.54,3.6 -8.42,4.94 -3.87,1.2 -9.22,2.27 -15.89,2.94 -6.68,0.67 -14.97,0.93 -24.85,0.93 -9.89,0 -18.17,-0.26 -24.85,-0.93 -6.68,-0.67 -11.89,-1.74 -15.63,-2.94 -3.87,-1.34 -6.54,-2.94 -8.01,-4.94 -1.61,-2.01 -2.41,-4.28 -2.41,-6.82l0 -267.03c0,-10.16 0.14,-20.18 0.4,-29.93 0.27,-9.88 0.67,-18.57 1.2,-26.05l-0.8 0c-2.13,3.61 -4.54,7.88 -7.48,12.69 -2.94,4.81 -6.01,9.89 -9.22,15.23 -3.33,5.35 -6.81,10.82 -10.41,16.43 -3.75,5.61 -7.35,11.09 -10.96,16.3l-175.93 262.77c-2.14,2.8 -4.28,5.34 -6.41,7.34 -2.28,2.14 -5.08,3.74 -8.69,4.95 -3.47,1.2 -7.75,2 -12.82,2.4 -5.08,0.4 -11.76,0.53 -19.77,0.53 -10.16,0 -18.44,-0.26 -24.58,-0.93 -6.28,-0.67 -11.22,-1.74 -14.7,-2.94 -3.6,-1.34 -6.01,-3.07 -7.21,-5.08 -1.34,-2.13 -2.01,-4.67 -2.01,-7.48l0 -479.31c0,-2.53 0.81,-4.8 2.54,-6.81 1.74,-2 4.54,-3.61 8.55,-4.94 4.01,-1.2 9.35,-2.27 15.9,-2.94 6.41,-0.67 14.69,-0.94 24.58,-0.94 10.02,0 18.43,0.27 24.85,0.94 6.54,0.67 11.75,1.74 15.63,2.94 3.87,1.33 6.68,2.94 8.14,4.94 1.61,2.01 2.41,4.28 2.41,6.81l0 268.65c0,8.28 -0.13,17.23 -0.4,26.58 -0.27,9.49 -0.67,18.57 -1.2,27.39l0.8 0c4.54,-7.75 10.15,-17.24 16.96,-28.19 6.82,-10.95 13.9,-21.64 21.11,-32.06l176.2 -262.77c1.87,-2.53 3.74,-4.81 5.88,-6.81 2.14,-2 4.94,-3.61 8.41,-4.94 3.48,-1.2 7.89,-2.14 13.1,-2.67 5.21,-0.54 11.89,-0.81 20.03,-0.81 9.89,0 17.9,0.27 24.05,0.94 6.14,0.67 10.95,1.74 14.69,2.94 3.61,1.33 6.15,2.94 7.62,4.94 1.47,2.01 2.14,4.41 2.14,7.22l0 479.7zm390.11 -133.72c0,25.52 -4.81,48.1 -14.43,67.47 -9.62,19.5 -23.38,35.8 -41.28,48.89 -17.9,13.22 -39.27,23.11 -64.12,29.65 -24.84,6.55 -52.5,9.76 -82.69,9.76 -16.71,0 -31.94,-1.21 -45.96,-3.48 -13.89,-2.4 -26.05,-5.34 -36.34,-8.81 -10.28,-3.61 -18.57,-7.08 -24.84,-10.42 -6.15,-3.34 -10.69,-6.15 -13.23,-8.42 -2.67,-2.27 -4.54,-4.54 -5.88,-6.81 -1.33,-2.41 -2.4,-5.75 -3.07,-10.02 -0.8,-4.28 -1.47,-9.75 -1.87,-16.3 -0.4,-6.41 -0.53,-14.56 -0.53,-24.18 0,-10.95 0.93,-18.3 2.93,-22.17 2.01,-3.74 4.95,-5.61 8.82,-5.61 3.07,0 7.48,1.6 13.23,4.81 5.74,3.2 13.09,6.94 21.9,11.08 8.82,4.01 19.51,7.75 32.07,11.09 12.42,3.34 27.11,5.08 44.09,5.08 14.03,0 26.85,-1.74 38.34,-5.08 11.35,-3.34 21.1,-8.15 28.99,-14.43 8.01,-6.28 14.16,-13.76 18.57,-22.44 4.4,-8.68 6.67,-18.43 6.67,-28.99 0,-11.75 -2,-22.31 -6.01,-31.66 -4.14,-9.35 -10.42,-17.36 -18.97,-23.78 -8.68,-6.54 -19.5,-11.48 -32.72,-15.09 -13.1,-3.47 -28.99,-5.21 -47.44,-5.21l-53.57 0c-4,0 -7.08,-0.54 -9.48,-1.6 -2.27,-1.07 -4.14,-2.94 -5.61,-5.88 -1.47,-2.81 -2.41,-6.81 -2.81,-12.02 -0.4,-5.08 -0.53,-11.76 -0.53,-20.18 0,-7.61 0.27,-13.76 0.8,-18.7 0.53,-4.81 1.47,-8.68 2.94,-11.49 1.47,-2.94 3.21,-4.94 5.48,-6.14 2.13,-1.2 4.94,-1.74 8.01,-1.74l54.37 0c16.04,0 30.07,-1.6 42.36,-4.67 12.29,-3.08 22.44,-7.75 30.72,-13.9 8.15,-6.14 14.43,-13.49 18.84,-22.17 4.27,-8.69 6.41,-18.7 6.41,-29.93 0,-9.35 -1.47,-17.9 -4.54,-25.64 -2.94,-7.89 -7.62,-14.43 -13.89,-19.78 -6.28,-5.34 -14.16,-9.48 -23.78,-12.42 -9.75,-3.07 -21.24,-4.54 -34.47,-4.54 -15.64,0 -29.8,1.74 -42.35,5.08 -12.43,3.34 -23.38,6.94 -32.6,10.82 -9.35,3.74 -17.1,7.48 -23.51,10.95 -6.41,3.47 -11.22,5.21 -14.3,5.21 -1.87,0 -3.33,-0.53 -4.67,-1.6 -1.34,-1.07 -2.54,-2.94 -3.47,-5.61 -1.07,-2.81 -1.87,-6.55 -2.27,-11.22 -0.41,-4.68 -0.54,-10.83 -0.54,-18.44 0,-5.21 0.13,-10.02 0.4,-14.43 0.27,-4.41 0.8,-8.41 1.6,-12.15 0.81,-3.61 1.74,-6.82 3.08,-9.62 1.33,-2.67 3.34,-5.35 6.01,-8.02 2.8,-2.54 8.41,-5.87 16.83,-10.02 8.55,-4.14 18.84,-7.88 31.13,-11.35 12.29,-3.47 26.05,-6.41 41.54,-8.68 15.37,-2.28 31.67,-3.48 48.9,-3.48 27.12,0 50.77,2.81 70.94,8.55 20.3,5.75 37.14,14.03 50.63,24.85 13.62,10.82 23.78,24.18 30.59,39.94 6.81,15.76 10.15,33.8 10.15,54.1 0,16.17 -2.27,30.86 -6.68,44.22 -4.41,13.23 -10.68,24.98 -18.97,35.13 -8.15,10.16 -18.03,18.71 -29.39,25.52 -11.22,6.95 -23.91,12.02 -37.67,15.1l0 0.8c15.9,1.87 30.46,6.14 43.55,13.09 13.23,6.94 24.45,15.76 33.8,26.45 9.48,10.69 16.7,22.84 21.91,36.6 5.21,13.63 7.88,28.32 7.88,44.08zm471.99 133.72c0,2.54 -0.81,4.81 -2.54,6.82 -1.74,2 -4.54,3.6 -8.42,4.94 -3.87,1.2 -9.22,2.27 -15.89,2.94 -6.68,0.67 -14.97,0.93 -24.85,0.93 -9.89,0 -18.17,-0.26 -24.85,-0.93 -6.68,-0.67 -11.89,-1.74 -15.63,-2.94 -3.87,-1.34 -6.54,-2.94 -8.01,-4.94 -1.61,-2.01 -2.41,-4.28 -2.41,-6.82l0 -267.03c0,-10.16 0.14,-20.18 0.4,-29.93 0.27,-9.88 0.67,-18.57 1.2,-26.05l-0.8 0c-2.13,3.61 -4.54,7.88 -7.48,12.69 -2.94,4.81 -6.01,9.89 -9.22,15.23 -3.33,5.35 -6.81,10.82 -10.41,16.43 -3.75,5.61 -7.35,11.09 -10.96,16.3l-175.93 262.77c-2.14,2.8 -4.28,5.34 -6.41,7.34 -2.28,2.14 -5.08,3.74 -8.69,4.95 -3.47,1.2 -7.75,2 -12.82,2.4 -5.08,0.4 -11.76,0.53 -19.77,0.53 -10.16,0 -18.44,-0.26 -24.58,-0.93 -6.28,-0.67 -11.22,-1.74 -14.7,-2.94 -3.6,-1.34 -6.01,-3.07 -7.21,-5.08 -1.34,-2.13 -2.01,-4.67 -2.01,-7.48l0 -479.31c0,-2.53 0.81,-4.8 2.54,-6.81 1.74,-2 4.54,-3.61 8.55,-4.94 4.01,-1.2 9.35,-2.27 15.9,-2.94 6.41,-0.67 14.69,-0.94 24.58,-0.94 10.02,0 18.43,0.27 24.85,0.94 6.54,0.67 11.75,1.74 15.63,2.94 3.87,1.33 6.68,2.94 8.14,4.94 1.61,2.01 2.41,4.28 2.41,6.81l0 268.65c0,8.28 -0.13,17.23 -0.4,26.58 -0.27,9.49 -0.67,18.57 -1.2,27.39l0.8 0c4.54,-7.75 10.15,-17.24 16.96,-28.19 6.82,-10.95 13.9,-21.64 21.11,-32.06l176.2 -262.77c1.87,-2.53 3.74,-4.81 5.88,-6.81 2.14,-2 4.94,-3.61 8.41,-4.94 3.48,-1.2 7.89,-2.14 13.1,-2.67 5.21,-0.54 11.89,-0.81 20.03,-0.81 9.89,0 17.9,0.27 24.05,0.94 6.14,0.67 10.95,1.74 14.69,2.94 3.61,1.33 6.15,2.94 7.62,4.94 1.47,2.01 2.14,4.41 2.14,7.22l0 479.7zm434.18 -339.44c0,28.59 -4.41,53.7 -13.36,75.61 -8.81,22.04 -21.77,40.48 -38.87,55.44 -16.96,15.1 -37.8,26.45 -62.52,34.33 -24.71,7.88 -53.83,11.76 -87.36,11.76l-42.35 0 0 161.5c0,2.68 -0.8,4.95 -2.54,7.08 -1.74,2.01 -4.54,3.74 -8.41,5.08 -3.88,1.34 -9.09,2.27 -15.63,3.07 -6.42,0.8 -14.83,1.2 -24.85,1.2 -9.89,0 -18.17,-0.4 -24.85,-1.2 -6.68,-0.8 -11.89,-1.87 -15.76,-3.07 -3.88,-1.34 -6.68,-3.07 -8.15,-5.08 -1.6,-2.13 -2.41,-4.54 -2.41,-7.08l0 -455.66c0,-12.29 3.21,-21.51 9.62,-27.65 6.42,-6.15 14.83,-9.22 25.25,-9.22l119.43 0c12.02,0 23.51,0.4 34.33,1.34 10.82,0.93 23.78,2.93 39.01,5.87 15.09,3.08 30.45,8.55 45.95,16.7 15.5,8.02 28.86,18.3 39.81,30.73 10.95,12.42 19.37,26.85 25.11,43.55 5.75,16.56 8.55,35.13 8.55,55.7zm-107.4 7.48c0,-17.76 -3.21,-32.46 -9.49,-43.95 -6.27,-11.49 -14.02,-20.04 -23.24,-25.51 -9.22,-5.48 -18.84,-8.95 -28.85,-10.42 -10.16,-1.47 -20.58,-2.14 -31.4,-2.14l-44.08 0 0 172.33 46.49 0c16.56,0 30.32,-2.27 41.54,-6.68 11.09,-4.41 20.31,-10.69 27.39,-18.7 7.08,-7.89 12.42,-17.5 16.16,-28.59 3.61,-11.09 5.48,-23.25 5.48,-36.34zm618.8 86.03c0,41.95 -5.21,79.49 -15.63,112.62 -10.42,33.12 -25.92,61.31 -46.62,84.29 -20.58,23.11 -46.09,40.74 -76.41,52.9 -30.46,12.16 -65.6,18.17 -105.54,18.17 -39.41,0 -73.74,-5.21 -102.99,-15.5 -29.39,-10.29 -53.84,-25.92 -73.48,-47.16 -19.5,-21.1 -34.19,-47.95 -43.95,-80.55 -9.75,-32.59 -14.69,-71.2 -14.69,-115.82 0,-40.88 5.21,-77.75 15.63,-110.47 10.42,-32.73 25.91,-60.52 46.62,-83.5 20.57,-22.97 46.09,-40.61 76.41,-52.76 30.46,-12.29 65.73,-18.44 105.94,-18.44 38.34,0 72.13,5.08 101.52,15.23 29.26,10.15 53.84,25.78 73.47,47.02 19.78,21.11 34.6,47.69 44.62,79.89 10.02,32.33 15.1,70.27 15.1,114.08zm-108.21 5.21c0,-26.58 -2.13,-50.76 -6.28,-72.54 -4.14,-21.77 -11.22,-40.47 -21.24,-55.97 -10.01,-15.49 -23.37,-27.52 -40.07,-36.07 -16.7,-8.41 -37.54,-12.69 -62.52,-12.69 -25.25,0 -46.35,4.81 -63.19,14.3 -16.96,9.48 -30.72,22.3 -41.14,38.2 -10.42,15.9 -17.77,34.47 -22.04,55.71 -4.28,21.37 -6.42,43.81 -6.42,67.59 0,27.65 2.14,52.5 6.28,74.54 4.14,22.05 11.22,40.88 21.11,56.64 9.89,15.63 23.11,27.52 39.81,35.81 16.7,8.14 37.67,12.29 62.92,12.29 25.25,0 46.35,-4.68 63.18,-14.16 16.97,-9.36 30.73,-22.18 41.15,-38.34 10.42,-16.17 17.77,-35 22.04,-56.51 4.28,-21.51 6.41,-44.49 6.41,-68.8zm537.98 101.93c0,18.03 -2.54,34.33 -7.48,49.02 -4.94,14.57 -11.76,27.52 -20.44,38.74 -8.82,11.23 -19.24,20.84 -31.26,28.99 -12.16,8.15 -25.51,14.7 -40.08,20.04 -14.56,5.21 -30.19,9.09 -46.75,11.49 -16.57,2.54 -35,3.74 -55.31,3.74l-134.52 0c-8.55,0 -15.76,-2.54 -21.64,-7.61 -5.88,-5.08 -8.82,-13.36 -8.82,-24.85l0 -441.64c0,-11.49 2.94,-19.77 8.82,-24.85 5.88,-5.07 13.09,-7.61 21.64,-7.61l126.91 0c30.99,0 57.18,2.67 78.68,7.88 21.51,5.21 39.54,13.09 54.24,23.65 14.83,10.55 26.05,23.91 33.8,40.07 7.88,16.17 11.75,35.14 11.75,57.04 0,12.29 -1.6,23.78 -4.67,34.6 -3.08,10.82 -7.75,20.71 -13.63,29.52 -6.01,8.96 -13.36,16.7 -22.18,23.52 -8.68,6.81 -18.56,12.29 -29.78,16.43 14.29,2.67 27.65,7.21 39.8,13.76 12.16,6.54 22.71,14.96 31.66,25.24 9.09,10.29 16.17,22.45 21.38,36.21 5.21,13.89 7.88,29.39 7.88,46.62zm-133.05 -213.47c0,-10.16 -1.61,-19.24 -4.68,-27.39 -3.07,-8.01 -7.75,-14.83 -14.02,-20.17 -6.28,-5.34 -14.17,-9.35 -23.65,-12.29 -9.48,-2.81 -22.18,-4.27 -38.07,-4.27l-51.83 0 0 131.44 57.31 0c14.82,0 26.71,-1.73 35.53,-5.34 8.82,-3.47 16.16,-8.28 22.04,-14.43 5.88,-6.14 10.15,-13.35 13.09,-21.5 2.81,-8.29 4.28,-16.84 4.28,-26.05zm26.45 217.21c0,-11.76 -2.01,-22.31 -5.88,-31.66 -3.87,-9.22 -9.62,-16.97 -17.23,-23.25 -7.48,-6.27 -17.1,-11.08 -28.86,-14.56 -11.75,-3.34 -26.98,-5.07 -45.82,-5.07l-60.91 0 0 144.27 74.27 0c14.29,0 26.32,-1.47 36.2,-4.54 9.75,-2.94 18.17,-7.48 25.38,-13.36 7.08,-5.88 12.69,-13.09 16.84,-21.91 4,-8.68 6.01,-18.7 6.01,-29.92zm571.64 109.94c3.07,9.35 5.08,16.83 5.88,22.31 0.8,5.48 -0.27,9.62 -3.07,12.42 -2.94,2.67 -8.02,4.41 -15.37,5.08 -7.21,0.67 -17.36,0.93 -30.05,0.93 -13.36,0 -23.78,-0.13 -31.13,-0.53 -7.48,-0.4 -13.09,-1.2 -17.1,-2.4 -3.87,-1.21 -6.54,-2.81 -8.15,-4.95 -1.6,-2 -2.94,-4.81 -3.87,-8.15l-33.26 -101.79 -191.03 0 -31.93 98.99c-1.07,3.74 -2.4,6.81 -4.14,9.22 -1.6,2.53 -4.41,4.4 -8.15,5.87 -3.74,1.47 -9.08,2.41 -16.03,2.94 -6.95,0.54 -16.03,0.8 -27.25,0.8 -12.02,0 -21.38,-0.4 -28.19,-1.2 -6.81,-0.8 -11.49,-2.67 -14.02,-5.61 -2.68,-3.07 -3.61,-7.35 -2.81,-12.82 0.8,-5.48 2.81,-12.69 5.88,-21.91l156.03 -449.52c1.47,-4.41 3.34,-8.02 5.47,-10.69 2.01,-2.8 5.35,-4.81 9.89,-6.28 4.67,-1.46 10.95,-2.4 19.1,-2.8 8.02,-0.4 18.7,-0.54 32.06,-0.54 15.37,0 27.66,0.14 36.74,0.54 9.22,0.4 16.3,1.34 21.37,2.8 5.08,1.47 8.69,3.61 10.96,6.42 2.13,2.94 4.14,6.81 5.61,11.75l156.56 449.12zm-232.44 -371.9l-0.4 0 -70.53 215.47 142.13 0 -71.2 -215.47zm675.17 396.21c0,2.54 -0.8,4.95 -2.53,7.08 -1.74,2.01 -4.55,3.74 -8.42,5.08 -3.87,1.2 -9.08,2.27 -15.63,3.07 -6.41,0.8 -14.69,1.2 -24.45,1.2 -10.15,0 -18.56,-0.4 -25.24,-1.2 -6.68,-0.8 -11.76,-1.87 -15.63,-3.07 -3.74,-1.34 -6.42,-3.07 -8.15,-5.08 -1.74,-2.13 -2.54,-4.54 -2.54,-7.08l0 -204.78 -189.96 0 0 204.78c0,2.54 -0.8,4.95 -2.41,7.08 -1.46,2.01 -4.27,3.74 -8.14,5.08 -3.88,1.2 -9.09,2.27 -15.63,3.07 -6.42,0.8 -14.83,1.2 -24.85,1.2 -9.89,0 -18.17,-0.4 -24.85,-1.2 -6.68,-0.8 -11.89,-1.87 -15.76,-3.07 -3.88,-1.34 -6.68,-3.07 -8.42,-5.08 -1.73,-2.13 -2.54,-4.54 -2.54,-7.08l0 -478.5c0,-2.54 0.81,-4.95 2.54,-7.08 1.74,-2.01 4.54,-3.74 8.42,-5.08 3.87,-1.34 9.08,-2.27 15.76,-3.07 6.68,-0.8 14.96,-1.21 24.85,-1.21 10.02,0 18.43,0.41 24.85,1.21 6.54,0.8 11.75,1.87 15.63,3.07 3.87,1.34 6.68,3.07 8.14,5.08 1.61,2.13 2.41,4.54 2.41,7.08l0 186.35 189.96 0 0 -186.35c0,-2.54 0.8,-4.95 2.54,-7.08 1.73,-2.01 4.41,-3.74 8.15,-5.08 3.87,-1.2 8.95,-2.27 15.63,-3.07 6.68,-0.8 15.09,-1.21 25.24,-1.21 9.76,0 18.04,0.41 24.45,1.21 6.55,0.8 11.76,1.73 15.63,3.07 3.87,1.34 6.68,3.07 8.42,5.08 1.73,2.13 2.53,4.54 2.53,7.08l0 478.5zm482.28 0c0,2.54 -0.8,4.95 -2.53,7.08 -1.74,2.01 -4.55,3.74 -8.42,5.08 -3.87,1.2 -9.08,2.27 -15.63,3.07 -6.41,0.8 -14.69,1.2 -24.45,1.2 -10.15,0 -18.56,-0.4 -25.24,-1.2 -6.68,-0.8 -11.76,-1.87 -15.63,-3.07 -3.74,-1.34 -6.42,-3.07 -8.15,-5.08 -1.74,-2.13 -2.54,-4.54 -2.54,-7.08l0 -204.78 -189.96 0 0 204.78c0,2.54 -0.8,4.95 -2.41,7.08 -1.46,2.01 -4.27,3.74 -8.14,5.08 -3.88,1.2 -9.09,2.27 -15.63,3.07 -6.42,0.8 -14.83,1.2 -24.85,1.2 -9.89,0 -18.17,-0.4 -24.85,-1.2 -6.68,-0.8 -11.89,-1.87 -15.76,-3.07 -3.88,-1.34 -6.68,-3.07 -8.42,-5.08 -1.73,-2.13 -2.54,-4.54 -2.54,-7.08l0 -478.5c0,-2.54 0.81,-4.95 2.54,-7.08 1.74,-2.01 4.54,-3.74 8.42,-5.08 3.87,-1.34 9.08,-2.27 15.76,-3.07 6.68,-0.8 14.96,-1.21 24.85,-1.21 10.02,0 18.43,0.41 24.85,1.21 6.54,0.8 11.75,1.87 15.63,3.07 3.87,1.34 6.68,3.07 8.14,5.08 1.61,2.13 2.41,4.54 2.41,7.08l0 186.35 189.96 0 0 -186.35c0,-2.54 0.8,-4.95 2.54,-7.08 1.73,-2.01 4.41,-3.74 8.15,-5.08 3.87,-1.2 8.95,-2.27 15.63,-3.07 6.68,-0.8 15.09,-1.21 25.24,-1.21 9.76,0 18.04,0.41 24.45,1.21 6.55,0.8 11.76,1.73 15.63,3.07 3.87,1.34 6.68,3.07 8.42,5.08 1.73,2.13 2.53,4.54 2.53,7.08l0 478.5zm616.94 0.8c0,2.54 -0.8,4.81 -2.54,6.82 -1.74,2 -4.54,3.6 -8.41,4.94 -3.88,1.2 -9.22,2.27 -15.9,2.94 -6.68,0.67 -14.96,0.93 -24.85,0.93 -9.88,0 -18.17,-0.26 -24.71,-0.93 -6.55,-0.67 -11.76,-1.74 -15.77,-2.94 -4.14,-1.34 -6.94,-2.94 -8.68,-4.94 -1.73,-2.01 -2.54,-4.28 -2.54,-6.82l0 -480.11c0,-2.53 0.81,-4.8 2.54,-6.81 1.74,-2 4.54,-3.61 8.68,-4.94 4.01,-1.2 9.36,-2.27 16.04,-2.94 6.67,-0.67 14.82,-0.94 24.44,-0.94 9.89,0 18.17,0.27 24.85,0.94 6.68,0.67 12.02,1.74 15.9,2.94 3.87,1.33 6.67,2.94 8.41,4.94 1.74,2.01 2.54,4.28 2.54,6.81l0 480.11zm-165.11 -153.89c0,24.05 -3.74,45.96 -11.09,65.99 -7.48,19.91 -19.24,37.28 -35.13,52.24 -15.9,14.83 -36.74,26.71 -62.39,35.53 -25.65,8.95 -60.65,13.36 -105,13.36l-119.43 0c-4.4,0 -8.54,-0.53 -12.29,-1.74 -3.74,-1.2 -7.08,-3.2 -10.01,-5.87 -2.81,-2.81 -5.08,-6.15 -6.82,-10.16 -1.73,-4.14 -2.54,-8.95 -2.54,-14.69l0 -460.88c0,-2.53 0.81,-4.8 2.54,-6.81 1.74,-2 4.54,-3.61 8.55,-4.94 4.01,-1.2 9.35,-2.27 16.03,-2.94 6.68,-0.67 14.7,-0.94 24.45,-0.94 10.02,0 18.43,0.27 24.85,0.94 6.54,0.67 11.75,1.74 15.63,2.94 3.87,1.33 6.68,2.94 8.14,4.94 1.61,2.01 2.41,4.28 2.41,6.81l0 175.14 63.85 0c37.94,0 68.13,3.2 90.71,9.75 22.58,6.54 41.81,16.16 57.58,28.99 15.76,12.82 28.05,28.72 36.86,47.69 8.69,19.1 13.1,40.61 13.1,64.65zm-105.8 8.55c0,-12.42 -1.87,-23.64 -5.48,-33.53 -3.61,-9.88 -9.22,-18.3 -16.83,-25.38 -7.62,-6.95 -17.24,-12.42 -28.99,-16.3 -11.76,-3.87 -29.12,-5.87 -52.1,-5.87l-52.9 0 0 160.3 54.5 0c23.91,0 42.08,-2.41 54.24,-7.21 12.16,-4.81 21.51,-11.09 28.32,-18.71 6.81,-7.74 11.75,-16.16 14.69,-25.51 3.08,-9.35 4.55,-18.7 4.55,-27.79z"/>
    <path class="fil0" d="M8443.06 1485.81c0,2.54 -0.81,4.81 -2.54,6.82 -1.74,2 -4.54,3.6 -8.42,4.94 -3.87,1.2 -9.22,2.27 -15.89,2.94 -6.68,0.67 -14.97,0.93 -24.85,0.93 -9.89,0 -18.17,-0.26 -24.85,-0.93 -6.68,-0.67 -11.89,-1.74 -15.63,-2.94 -3.87,-1.34 -6.54,-2.94 -8.01,-4.94 -1.61,-2.01 -2.41,-4.28 -2.41,-6.82l0 -267.03c0,-10.16 0.14,-20.18 0.4,-29.93 0.27,-9.88 0.67,-18.57 1.2,-26.05l-0.8 0c-2.13,3.61 -4.54,7.88 -7.48,12.69 -2.94,4.81 -6.01,9.89 -9.22,15.23 -3.33,5.35 -6.81,10.82 -10.41,16.43 -3.75,5.61 -7.35,11.09 -10.96,16.3l-175.93 262.77c-2.14,2.8 -4.28,5.34 -6.41,7.34 -2.28,2.14 -5.08,3.74 -8.69,4.95 -3.47,1.2 -7.75,2 -12.82,2.4 -5.08,0.4 -11.76,0.53 -19.77,0.53 -10.16,0 -18.44,-0.26 -24.58,-0.93 -6.28,-0.67 -11.22,-1.74 -14.7,-2.94 -3.6,-1.34 -6.01,-3.07 -7.21,-5.08 -1.34,-2.13 -2.01,-4.67 -2.01,-7.48l0 -479.31c0,-2.53 0.81,-4.8 2.54,-6.81 1.74,-2 4.54,-3.61 8.55,-4.94 4.01,-1.2 9.35,-2.27 15.9,-2.94 6.41,-0.67 14.69,-0.94 24.58,-0.94 10.02,0 18.43,0.27 24.85,0.94 6.54,0.67 11.75,1.74 15.63,2.94 3.87,1.33 6.68,2.94 8.14,4.94 1.61,2.01 2.41,4.28 2.41,6.81l0 268.65c0,8.28 -0.13,17.23 -0.4,26.58 -0.27,9.49 -0.67,18.57 -1.2,27.39l0.8 0c4.54,-7.75 10.15,-17.24 16.96,-28.19 6.82,-10.95 13.9,-21.64 21.11,-32.06l176.2 -262.77c1.87,-2.53 3.74,-4.81 5.88,-6.81 2.14,-2 4.94,-3.61 8.41,-4.94 3.48,-1.2 7.89,-2.14 13.1,-2.67 5.21,-0.54 11.89,-0.81 20.03,-0.81 9.89,0 17.9,0.27 24.05,0.94 6.14,0.67 10.95,1.74 14.69,2.94 3.61,1.33 6.15,2.94 7.62,4.94 1.47,2.01 2.14,4.41 2.14,7.22l0 479.7zm-59.32 -629.59c0,14.43 -2.53,28.32 -7.48,41.55 -4.94,13.22 -12.96,24.98 -24.04,35 -11.09,10.15 -25.79,18.16 -43.95,24.18 -18.17,6.01 -40.35,9.08 -66.8,9.08 -25.64,0 -47.42,-2.81 -65.45,-8.28 -18.04,-5.48 -32.73,-13.09 -44.09,-22.58 -11.35,-9.62 -19.63,-21.11 -24.84,-34.6 -5.21,-13.62 -7.89,-28.32 -7.89,-44.35 0,-3.87 0.67,-7.08 2.14,-9.62 1.47,-2.54 3.88,-4.54 7.22,-6.14 3.47,-1.47 8.01,-2.67 13.89,-3.34 5.88,-0.67 13.36,-0.94 22.17,-0.94 8.42,0 15.23,0.4 20.84,1.21 5.48,0.8 9.62,2 12.43,3.47 2.94,1.6 4.94,3.61 6.14,6.14 1.2,2.54 1.74,5.48 1.74,8.82 0,6.28 1.2,12.29 3.74,17.77 2.54,5.47 6.14,10.28 10.95,14.29 4.95,4.14 10.96,7.48 18.04,10.15 7.08,2.54 14.96,3.88 23.51,3.88 8.41,0 16.03,-1.2 22.84,-3.74 6.81,-2.54 12.69,-5.75 17.63,-9.89 4.81,-4.01 8.42,-8.81 10.96,-14.56 2.54,-5.61 3.74,-11.89 3.74,-18.7 0,-3.07 0.53,-5.88 1.6,-8.15 0.94,-2.4 3.08,-4.41 6.01,-6.01 2.94,-1.47 6.95,-2.67 12.03,-3.47 5.07,-0.81 11.62,-1.21 19.37,-1.21 9.35,0 17.1,0.27 23.24,0.94 6.01,0.67 10.96,1.87 14.56,3.34 3.61,1.6 6.15,3.6 7.62,6.14 1.47,2.54 2.13,5.75 2.13,9.62zm-4308.44 1670.55c0,2.53 -0.67,4.8 -2,6.54 -1.21,1.87 -3.61,3.34 -6.95,4.54 -3.47,1.21 -8.01,2.14 -13.63,2.81 -5.74,0.67 -13.22,0.93 -22.3,0.93 -8.82,0 -16.03,-0.26 -21.65,-0.93 -5.61,-0.67 -10.15,-1.6 -13.62,-2.81 -3.61,-1.2 -6.01,-2.67 -7.48,-4.4 -1.47,-1.88 -2.14,-4.15 -2.14,-6.68l0 -119.03 -337.45 0 0 119.03c0,2.53 -0.67,4.8 -2.14,6.68 -1.47,1.73 -3.87,3.2 -7.48,4.4 -3.47,1.21 -8.15,2.14 -13.89,2.81 -5.74,0.67 -13.09,0.93 -21.91,0.93 -8.95,0 -16.3,-0.26 -22.04,-0.93 -5.74,-0.67 -10.42,-1.6 -13.89,-2.81 -3.48,-1.2 -6.01,-2.67 -7.22,-4.54 -1.33,-1.74 -2,-4.01 -2,-6.54l0 -182.08c-0.54,-7.48 0.8,-12.96 4.14,-16.17 3.21,-3.34 8.15,-4.94 14.69,-4.94l23.52 0c6.27,-8.82 12.15,-18.03 17.76,-27.38 5.61,-9.36 11.09,-20.58 16.3,-33.4 5.21,-12.96 10.29,-28.32 15.5,-46.22 5.07,-17.77 10.02,-39.68 14.96,-65.46 5.07,-25.78 10.02,-56.37 15.09,-91.77 5.08,-35.27 10.42,-76.82 15.9,-124.51 1.6,-11.75 4.54,-20.3 8.95,-25.65 4.54,-5.34 11.36,-8.01 20.44,-8.01l258.9 0c9.08,0 16.3,2.67 21.51,8.01 5.21,5.35 7.88,13.5 7.88,24.45l0 389.94 43.01 0c7.08,0 12.03,1.87 14.97,5.61 2.8,3.88 4.27,9.08 4.27,15.9l0 181.68zm-164.84 -542.23l-118.11 0c-4.67,39.54 -9.35,74.41 -14.02,104.46 -4.54,30.06 -9.22,56.51 -13.76,79.09 -4.68,22.71 -9.22,42.21 -14.03,58.64 -4.67,16.43 -9.48,30.59 -14.43,42.61 -4.8,11.89 -9.88,22.18 -15.09,30.86 -5.34,8.55 -10.69,16.3 -16.16,23.38l205.6 0 0 -339.04zm513.26 382.72c0,7.62 -0.26,13.9 -0.93,19.11 -0.67,5.07 -1.6,9.21 -2.94,12.29 -1.34,3.2 -2.94,5.47 -4.94,6.94 -1.87,1.47 -4.14,2.14 -6.42,2.14l-254.08 0c-8.55,0 -15.76,-2.54 -21.64,-7.61 -5.88,-5.08 -8.82,-13.36 -8.82,-24.85l0 -441.64c0,-11.49 2.94,-19.77 8.82,-24.85 5.88,-5.07 13.09,-7.61 21.64,-7.61l252.88 0c2.27,0 4.41,0.67 6.28,2 1.74,1.34 3.34,3.61 4.68,6.82 1.2,3.34 2.27,7.48 2.94,12.55 0.66,5.21 0.93,11.63 0.93,19.51 0,7.34 -0.27,13.49 -0.93,18.7 -0.67,5.08 -1.61,9.22 -2.94,12.29 -1.34,3.21 -2.94,5.48 -4.68,6.95 -1.87,1.46 -4.01,2.13 -6.28,2.13l-180.74 0 0 123.44 152.29 0c2.4,0 4.54,0.66 6.41,2.13 2,1.47 3.61,3.61 4.94,6.68 1.34,2.94 2.27,6.95 2.94,12.16 0.67,5.08 0.94,11.22 0.94,18.44 0,7.61 -0.27,13.89 -0.94,18.83 -0.67,4.94 -1.6,8.95 -2.94,11.89 -1.33,3.07 -2.94,5.21 -4.94,6.41 -1.87,1.34 -4.01,2.01 -6.41,2.01l-152.29 0 0 142.67 181.94 0c2.41,0 4.55,0.66 6.42,2.13 2,1.47 3.6,3.74 4.94,6.95 1.34,3.07 2.27,7.21 2.94,12.29 0.67,5.21 0.93,11.49 0.93,19.1zm462.24 27.25c0,2.54 -0.8,4.81 -2.4,6.82 -1.47,2 -4.28,3.6 -8.15,4.94 -3.87,1.2 -9.08,2.27 -15.76,2.94 -6.68,0.67 -14.97,0.93 -24.72,0.93 -9.88,0 -18.17,-0.26 -24.84,-0.93 -6.68,-0.67 -11.89,-1.74 -15.77,-2.94 -3.87,-1.34 -6.68,-2.94 -8.41,-4.94 -1.74,-2.01 -2.54,-4.28 -2.54,-6.82l0 -407.57 -189.16 0 0 407.57c0,2.54 -0.8,4.81 -2.54,6.82 -1.74,2 -4.54,3.6 -8.41,4.94 -3.88,1.2 -9.09,2.27 -15.63,2.94 -6.42,0.67 -14.83,0.93 -24.85,0.93 -9.89,0 -18.17,-0.26 -24.85,-0.93 -6.68,-0.67 -11.89,-1.74 -15.76,-2.94 -3.88,-1.34 -6.68,-2.94 -8.15,-4.94 -1.6,-2.01 -2.41,-4.28 -2.41,-6.82l0 -460.87c0,-10.95 2.81,-19.1 8.29,-24.45 5.47,-5.34 12.69,-8.01 21.77,-8.01l334.5 0c9.49,0 16.7,2.67 21.91,8.01 5.21,5.35 7.88,13.5 7.88,24.45l0 460.87zm542.39 -245.93c0,41.95 -5.21,79.49 -15.63,112.62 -10.42,33.12 -25.92,61.31 -46.62,84.29 -20.58,23.11 -46.09,40.74 -76.41,52.9 -30.46,12.16 -65.6,18.17 -105.54,18.17 -39.41,0 -73.74,-5.21 -102.99,-15.5 -29.39,-10.29 -53.84,-25.92 -73.48,-47.16 -19.5,-21.1 -34.19,-47.95 -43.95,-80.55 -9.75,-32.59 -14.69,-71.2 -14.69,-115.82 0,-40.88 5.21,-77.75 15.63,-110.47 10.42,-32.73 25.91,-60.52 46.62,-83.5 20.57,-22.97 46.09,-40.61 76.41,-52.76 30.46,-12.29 65.73,-18.44 105.94,-18.44 38.34,0 72.13,5.08 101.52,15.23 29.26,10.15 53.84,25.78 73.47,47.02 19.78,21.11 34.6,47.69 44.62,79.89 10.02,32.33 15.1,70.27 15.1,114.08zm-108.21 5.21c0,-26.58 -2.13,-50.76 -6.28,-72.54 -4.14,-21.77 -11.22,-40.47 -21.24,-55.97 -10.01,-15.49 -23.37,-27.52 -40.07,-36.07 -16.7,-8.41 -37.54,-12.69 -62.52,-12.69 -25.25,0 -46.35,4.81 -63.19,14.3 -16.96,9.48 -30.72,22.3 -41.14,38.2 -10.42,15.9 -17.77,34.47 -22.04,55.71 -4.28,21.37 -6.42,43.81 -6.42,67.59 0,27.65 2.14,52.5 6.28,74.54 4.14,22.05 11.22,40.88 21.11,56.64 9.89,15.63 23.11,27.52 39.81,35.81 16.7,8.14 37.67,12.29 62.92,12.29 25.25,0 46.35,-4.68 63.18,-14.16 16.97,-9.36 30.73,-22.18 41.15,-38.34 10.42,-16.17 17.77,-35 22.04,-56.51 4.28,-21.51 6.41,-44.49 6.41,-68.8zm467.98 107c0,25.52 -4.81,48.1 -14.43,67.47 -9.62,19.5 -23.38,35.8 -41.28,48.89 -17.9,13.22 -39.27,23.11 -64.12,29.65 -24.84,6.55 -52.5,9.76 -82.69,9.76 -16.7,0 -31.93,-1.21 -45.95,-3.48 -13.89,-2.4 -26.05,-5.34 -36.34,-8.81 -10.28,-3.61 -18.57,-7.08 -24.84,-10.42 -6.15,-3.34 -10.69,-6.15 -13.23,-8.42 -2.67,-2.27 -4.54,-4.54 -5.88,-6.81 -1.33,-2.41 -2.4,-5.75 -3.07,-10.02 -0.8,-4.28 -1.47,-9.75 -1.87,-16.3 -0.4,-6.41 -0.53,-14.56 -0.53,-24.18 0,-10.95 0.93,-18.3 2.93,-22.17 2.01,-3.74 4.95,-5.61 8.82,-5.61 3.07,0 7.48,1.6 13.23,4.81 5.74,3.2 13.09,6.94 21.9,11.08 8.82,4.01 19.51,7.75 32.07,11.09 12.42,3.34 27.11,5.08 44.08,5.08 14.03,0 26.85,-1.74 38.34,-5.08 11.35,-3.34 21.1,-8.15 28.99,-14.43 8.01,-6.28 14.16,-13.76 18.57,-22.44 4.4,-8.68 6.67,-18.43 6.67,-28.99 0,-11.75 -2,-22.31 -6.01,-31.66 -4.14,-9.35 -10.42,-17.36 -18.97,-23.78 -8.68,-6.54 -19.5,-11.48 -32.72,-15.09 -13.1,-3.47 -28.99,-5.21 -47.43,-5.21l-53.57 0c-4,0 -7.08,-0.54 -9.48,-1.6 -2.27,-1.07 -4.14,-2.94 -5.61,-5.88 -1.47,-2.81 -2.41,-6.81 -2.81,-12.02 -0.4,-5.08 -0.53,-11.76 -0.53,-20.18 0,-7.61 0.27,-13.76 0.8,-18.7 0.53,-4.81 1.47,-8.68 2.94,-11.49 1.47,-2.94 3.21,-4.94 5.48,-6.14 2.13,-1.2 4.94,-1.74 8.01,-1.74l54.37 0c16.03,0 30.06,-1.6 42.35,-4.67 12.29,-3.08 22.44,-7.75 30.72,-13.9 8.15,-6.14 14.43,-13.49 18.84,-22.17 4.27,-8.69 6.41,-18.7 6.41,-29.93 0,-9.35 -1.47,-17.9 -4.54,-25.64 -2.94,-7.89 -7.62,-14.43 -13.89,-19.78 -6.28,-5.34 -14.16,-9.48 -23.78,-12.42 -9.75,-3.07 -21.24,-4.54 -34.47,-4.54 -15.63,0 -29.79,1.74 -42.34,5.08 -12.43,3.34 -23.38,6.94 -32.6,10.82 -9.35,3.74 -17.1,7.48 -23.51,10.95 -6.41,3.47 -11.22,5.21 -14.3,5.21 -1.87,0 -3.33,-0.53 -4.67,-1.6 -1.34,-1.07 -2.54,-2.94 -3.47,-5.61 -1.07,-2.81 -1.87,-6.55 -2.27,-11.22 -0.41,-4.68 -0.54,-10.83 -0.54,-18.44 0,-5.21 0.13,-10.02 0.4,-14.43 0.27,-4.41 0.8,-8.41 1.6,-12.15 0.81,-3.61 1.74,-6.82 3.08,-9.62 1.33,-2.67 3.34,-5.35 6.01,-8.02 2.8,-2.54 8.41,-5.87 16.83,-10.02 8.55,-4.14 18.84,-7.88 31.13,-11.35 12.29,-3.47 26.05,-6.41 41.54,-8.68 15.36,-2.28 31.66,-3.48 48.89,-3.48 27.12,0 50.77,2.81 70.94,8.55 20.3,5.75 37.14,14.03 50.63,24.85 13.62,10.82 23.78,24.18 30.59,39.94 6.81,15.76 10.15,33.8 10.15,54.1 0,16.17 -2.27,30.86 -6.68,44.22 -4.41,13.23 -10.68,24.98 -18.97,35.13 -8.15,10.16 -18.03,18.71 -29.39,25.52 -11.22,6.95 -23.91,12.02 -37.67,15.1l0 0.8c15.9,1.87 30.46,6.14 43.55,13.09 13.23,6.94 24.45,15.76 33.8,26.45 9.48,10.69 16.7,22.84 21.91,36.6 5.21,13.63 7.88,28.32 7.88,44.08zm471.99 133.72c0,2.54 -0.81,4.81 -2.54,6.82 -1.74,2 -4.54,3.6 -8.42,4.94 -3.87,1.2 -9.22,2.27 -15.89,2.94 -6.68,0.67 -14.97,0.93 -24.85,0.93 -9.89,0 -18.17,-0.26 -24.85,-0.93 -6.68,-0.67 -11.89,-1.74 -15.63,-2.94 -3.87,-1.34 -6.54,-2.94 -8.01,-4.94 -1.61,-2.01 -2.41,-4.28 -2.41,-6.82l0 -267.03c0,-10.16 0.14,-20.18 0.4,-29.93 0.27,-9.88 0.67,-18.57 1.2,-26.05l-0.8 0c-2.13,3.61 -4.54,7.88 -7.48,12.69 -2.94,4.81 -6.01,9.89 -9.22,15.23 -3.33,5.35 -6.81,10.82 -10.41,16.43 -3.75,5.61 -7.35,11.09 -10.96,16.3l-175.93 262.77c-2.14,2.8 -4.28,5.34 -6.41,7.34 -2.28,2.14 -5.08,3.74 -8.69,4.95 -3.47,1.2 -7.75,2 -12.82,2.4 -5.08,0.4 -11.76,0.53 -19.77,0.53 -10.16,0 -18.44,-0.26 -24.58,-0.93 -6.28,-0.67 -11.22,-1.74 -14.7,-2.94 -3.6,-1.34 -6.01,-3.07 -7.21,-5.08 -1.34,-2.13 -2.01,-4.67 -2.01,-7.48l0 -479.31c0,-2.53 0.81,-4.8 2.54,-6.81 1.74,-2 4.54,-3.61 8.55,-4.94 4.01,-1.2 9.35,-2.27 15.9,-2.94 6.41,-0.67 14.69,-0.94 24.58,-0.94 10.02,0 18.43,0.27 24.85,0.94 6.54,0.67 11.75,1.74 15.63,2.94 3.87,1.33 6.68,2.94 8.14,4.94 1.61,2.01 2.41,4.28 2.41,6.81l0 268.65c0,8.28 -0.13,17.23 -0.4,26.58 -0.27,9.49 -0.67,18.57 -1.2,27.39l0.8 0c4.54,-7.75 10.15,-17.24 16.96,-28.19 6.82,-10.95 13.9,-21.64 21.11,-32.06l176.2 -262.77c1.87,-2.53 3.74,-4.81 5.88,-6.81 2.14,-2 4.94,-3.61 8.41,-4.94 3.48,-1.2 7.89,-2.14 13.1,-2.67 5.21,-0.54 11.89,-0.81 20.03,-0.81 9.89,0 17.9,0.27 24.05,0.94 6.14,0.67 10.95,1.74 14.69,2.94 3.61,1.33 6.15,2.94 7.62,4.94 1.47,2.01 2.14,4.41 2.14,7.22l0 479.7zm423.76 -451.12c0,7.62 -0.26,14.03 -0.93,19.51 -0.67,5.34 -1.6,9.61 -2.94,12.82 -1.34,3.34 -2.94,5.74 -4.94,7.21 -1.87,1.61 -4.14,2.41 -6.42,2.41l-126.64 0 0 408.37c0,2.54 -0.8,4.95 -2.53,7.08 -1.74,2.01 -4.55,3.74 -8.42,5.08 -3.87,1.2 -9.22,2.27 -15.9,3.07 -6.68,0.8 -14.96,1.2 -24.84,1.2 -9.89,0 -18.17,-0.4 -24.85,-1.2 -6.68,-0.8 -12.02,-1.87 -15.9,-3.07 -3.87,-1.34 -6.68,-3.07 -8.41,-5.08 -1.74,-2.13 -2.54,-4.54 -2.54,-7.08l0 -408.37 -126.64 0c-2.54,0 -4.81,-0.8 -6.68,-2.41 -1.74,-1.47 -3.34,-3.87 -4.68,-7.21 -1.2,-3.21 -2.27,-7.48 -2.94,-12.82 -0.66,-5.48 -0.93,-11.89 -0.93,-19.51 0,-7.75 0.27,-14.42 0.93,-19.9 0.67,-5.48 1.74,-9.89 2.94,-13.09 1.34,-3.34 2.94,-5.61 4.68,-7.08 1.87,-1.47 4.14,-2.14 6.68,-2.14l356.67 0c2.28,0 4.41,0.67 6.42,2.14 2,1.47 3.6,3.74 4.94,7.08 1.34,3.2 2.27,7.61 2.94,13.09 0.67,5.48 0.93,12.15 0.93,19.9zm397.32 426.01c3.07,9.35 5.08,16.83 5.88,22.31 0.8,5.48 -0.27,9.62 -3.07,12.42 -2.94,2.67 -8.02,4.41 -15.37,5.08 -7.21,0.67 -17.36,0.93 -30.05,0.93 -13.36,0 -23.78,-0.13 -31.13,-0.53 -7.48,-0.4 -13.09,-1.2 -17.1,-2.4 -3.87,-1.21 -6.54,-2.81 -8.15,-4.95 -1.6,-2 -2.94,-4.81 -3.87,-8.15l-33.26 -101.79 -191.03 0 -31.93 98.99c-1.07,3.74 -2.4,6.81 -4.14,9.22 -1.6,2.53 -4.41,4.4 -8.15,5.87 -3.74,1.47 -9.08,2.41 -16.03,2.94 -6.95,0.54 -16.03,0.8 -27.25,0.8 -12.02,0 -21.38,-0.4 -28.19,-1.2 -6.81,-0.8 -11.49,-2.67 -14.02,-5.61 -2.68,-3.07 -3.61,-7.35 -2.81,-12.82 0.8,-5.48 2.81,-12.69 5.88,-21.91l156.03 -449.52c1.47,-4.41 3.34,-8.02 5.47,-10.69 2.01,-2.8 5.35,-4.81 9.89,-6.28 4.67,-1.46 10.95,-2.4 19.1,-2.8 8.02,-0.4 18.7,-0.54 32.06,-0.54 15.37,0 27.66,0.14 36.74,0.54 9.22,0.4 16.3,1.34 21.37,2.8 5.08,1.47 8.69,3.61 10.96,6.42 2.13,2.94 4.14,6.81 5.61,11.75l156.56 449.12zm-232.44 -371.9l-0.4 0 -70.53 215.47 142.13 0 -71.2 -215.47zm627.08 57.57c0,28.59 -4.41,53.7 -13.36,75.61 -8.81,22.04 -21.77,40.48 -38.87,55.44 -16.96,15.1 -37.8,26.45 -62.52,34.33 -24.71,7.88 -53.83,11.76 -87.36,11.76l-42.35 0 0 161.5c0,2.68 -0.8,4.95 -2.54,7.08 -1.74,2.01 -4.54,3.74 -8.41,5.08 -3.88,1.34 -9.09,2.27 -15.63,3.07 -6.42,0.8 -14.83,1.2 -24.85,1.2 -9.89,0 -18.17,-0.4 -24.85,-1.2 -6.68,-0.8 -11.89,-1.87 -15.76,-3.07 -3.88,-1.34 -6.68,-3.07 -8.15,-5.08 -1.6,-2.13 -2.41,-4.54 -2.41,-7.08l0 -455.66c0,-12.29 3.21,-21.51 9.62,-27.65 6.42,-6.15 14.83,-9.22 25.25,-9.22l119.43 0c12.02,0 23.51,0.4 34.33,1.34 10.82,0.93 23.78,2.93 39.01,5.87 15.09,3.08 30.45,8.55 45.95,16.7 15.5,8.02 28.86,18.3 39.81,30.73 10.95,12.42 19.37,26.85 25.11,43.55 5.75,16.56 8.55,35.13 8.55,55.7zm-107.4 7.48c0,-17.76 -3.21,-32.46 -9.49,-43.95 -6.27,-11.49 -14.02,-20.04 -23.24,-25.51 -9.22,-5.48 -18.84,-8.95 -28.85,-10.42 -10.16,-1.47 -20.58,-2.14 -31.4,-2.14l-44.08 0 0 172.33 46.49 0c16.56,0 30.32,-2.27 41.54,-6.68 11.09,-4.41 20.31,-10.69 27.39,-18.7 7.08,-7.89 12.42,-17.5 16.16,-28.59 3.61,-11.09 5.48,-23.25 5.48,-36.34zm575.52 331.96c0,2.54 -0.81,4.81 -2.54,6.82 -1.74,2 -4.54,3.6 -8.42,4.94 -3.87,1.2 -9.22,2.27 -15.89,2.94 -6.68,0.67 -14.97,0.93 -24.85,0.93 -9.89,0 -18.17,-0.26 -24.85,-0.93 -6.68,-0.67 -11.89,-1.74 -15.63,-2.94 -3.87,-1.34 -6.54,-2.94 -8.01,-4.94 -1.61,-2.01 -2.41,-4.28 -2.41,-6.82l0 -267.03c0,-10.16 0.14,-20.18 0.4,-29.93 0.27,-9.88 0.67,-18.57 1.2,-26.05l-0.8 0c-2.13,3.61 -4.54,7.88 -7.48,12.69 -2.94,4.81 -6.01,9.89 -9.22,15.23 -3.33,5.35 -6.81,10.82 -10.41,16.43 -3.75,5.61 -7.35,11.09 -10.96,16.3l-175.93 262.77c-2.14,2.8 -4.28,5.34 -6.41,7.34 -2.28,2.14 -5.08,3.74 -8.69,4.95 -3.47,1.2 -7.75,2 -12.82,2.4 -5.08,0.4 -11.76,0.53 -19.77,0.53 -10.16,0 -18.44,-0.26 -24.58,-0.93 -6.28,-0.67 -11.22,-1.74 -14.7,-2.94 -3.6,-1.34 -6.01,-3.07 -7.21,-5.08 -1.34,-2.13 -2.01,-4.67 -2.01,-7.48l0 -479.31c0,-2.53 0.81,-4.8 2.54,-6.81 1.74,-2 4.54,-3.61 8.55,-4.94 4.01,-1.2 9.35,-2.27 15.9,-2.94 6.41,-0.67 14.69,-0.94 24.58,-0.94 10.02,0 18.43,0.27 24.85,0.94 6.54,0.67 11.75,1.74 15.63,2.94 3.87,1.33 6.68,2.94 8.14,4.94 1.61,2.01 2.41,4.28 2.41,6.81l0 268.65c0,8.28 -0.13,17.23 -0.4,26.58 -0.27,9.49 -0.67,18.57 -1.2,27.39l0.8 0c4.54,-7.75 10.15,-17.24 16.96,-28.19 6.82,-10.95 13.9,-21.64 21.11,-32.06l176.2 -262.77c1.87,-2.53 3.74,-4.81 5.88,-6.81 2.14,-2 4.94,-3.61 8.41,-4.94 3.48,-1.2 7.89,-2.14 13.1,-2.67 5.21,-0.54 11.89,-0.81 20.03,-0.81 9.89,0 17.9,0.27 24.05,0.94 6.14,0.67 10.95,1.74 14.69,2.94 3.61,1.33 6.15,2.94 7.62,4.94 1.47,2.01 2.14,4.41 2.14,7.22l0 479.7zm499.11 0c0,2.54 -0.81,4.81 -2.54,6.82 -1.74,2 -4.54,3.6 -8.42,4.94 -3.87,1.2 -9.22,2.27 -15.89,2.94 -6.68,0.67 -14.97,0.93 -24.85,0.93 -9.89,0 -18.17,-0.26 -24.85,-0.93 -6.68,-0.67 -11.89,-1.74 -15.63,-2.94 -3.87,-1.34 -6.54,-2.94 -8.01,-4.94 -1.61,-2.01 -2.41,-4.28 -2.41,-6.82l0 -267.03c0,-10.16 0.14,-20.18 0.4,-29.93 0.27,-9.88 0.67,-18.57 1.2,-26.05l-0.8 0c-2.13,3.61 -4.54,7.88 -7.48,12.69 -2.94,4.81 -6.01,9.89 -9.22,15.23 -3.33,5.35 -6.81,10.82 -10.41,16.43 -3.75,5.61 -7.35,11.09 -10.96,16.3l-175.93 262.77c-2.14,2.8 -4.28,5.34 -6.41,7.34 -2.28,2.14 -5.08,3.74 -8.69,4.95 -3.47,1.2 -7.75,2 -12.82,2.4 -5.08,0.4 -11.76,0.53 -19.77,0.53 -10.16,0 -18.44,-0.26 -24.58,-0.93 -6.28,-0.67 -11.22,-1.74 -14.7,-2.94 -3.6,-1.34 -6.01,-3.07 -7.21,-5.08 -1.34,-2.13 -2.01,-4.67 -2.01,-7.48l0 -479.31c0,-2.53 0.81,-4.8 2.54,-6.81 1.74,-2 4.54,-3.61 8.55,-4.94 4.01,-1.2 9.35,-2.27 15.9,-2.94 6.41,-0.67 14.69,-0.94 24.58,-0.94 10.02,0 18.43,0.27 24.85,0.94 6.54,0.67 11.75,1.74 15.63,2.94 3.87,1.33 6.68,2.94 8.14,4.94 1.61,2.01 2.41,4.28 2.41,6.81l0 268.65c0,8.28 -0.13,17.23 -0.4,26.58 -0.27,9.49 -0.67,18.57 -1.2,27.39l0.8 0c4.54,-7.75 10.15,-17.24 16.96,-28.19 6.82,-10.95 13.9,-21.64 21.11,-32.06l176.2 -262.77c1.87,-2.53 3.74,-4.81 5.88,-6.81 2.14,-2 4.94,-3.61 8.41,-4.94 3.48,-1.2 7.89,-2.14 13.1,-2.67 5.21,-0.54 11.89,-0.81 20.03,-0.81 9.89,0 17.9,0.27 24.05,0.94 6.14,0.67 10.95,1.74 14.69,2.94 3.61,1.33 6.15,2.94 7.62,4.94 1.47,2.01 2.14,4.41 2.14,7.22l0 479.7zm-59.32 -629.59c0,14.43 -2.53,28.32 -7.48,41.55 -4.94,13.22 -12.96,24.98 -24.04,35 -11.09,10.15 -25.79,18.16 -43.95,24.18 -18.17,6.01 -40.35,9.08 -66.8,9.08 -25.64,0 -47.42,-2.81 -65.45,-8.28 -18.04,-5.48 -32.73,-13.09 -44.09,-22.58 -11.35,-9.62 -19.63,-21.11 -24.84,-34.6 -5.21,-13.62 -7.89,-28.32 -7.89,-44.35 0,-3.87 0.67,-7.08 2.14,-9.62 1.47,-2.54 3.88,-4.54 7.22,-6.14 3.47,-1.47 8.01,-2.67 13.89,-3.34 5.88,-0.67 13.36,-0.94 22.17,-0.94 8.42,0 15.23,0.4 20.84,1.21 5.48,0.8 9.62,2 12.43,3.47 2.94,1.6 4.94,3.61 6.14,6.14 1.2,2.54 1.74,5.48 1.74,8.82 0,6.28 1.2,12.29 3.74,17.77 2.54,5.47 6.14,10.28 10.95,14.29 4.95,4.14 10.96,7.48 18.04,10.15 7.08,2.54 14.96,3.88 23.51,3.88 8.41,0 16.03,-1.2 22.84,-3.74 6.81,-2.54 12.69,-5.75 17.63,-9.89 4.81,-4.01 8.42,-8.81 10.96,-14.56 2.54,-5.61 3.74,-11.89 3.74,-18.7 0,-3.07 0.53,-5.88 1.6,-8.15 0.94,-2.4 3.08,-4.41 6.01,-6.01 2.94,-1.47 6.95,-2.67 12.03,-3.47 5.07,-0.81 11.62,-1.21 19.37,-1.21 9.35,0 17.1,0.27 23.24,0.94 6.01,0.67 10.96,1.87 14.56,3.34 3.61,1.6 6.15,3.6 7.62,6.14 1.47,2.54 2.13,5.75 2.13,9.62z"/>
   </g>
   <path class="fil1" d="M10570.24 2375.92c0,13.04 -3.45,24.21 -10.33,33.51 -6.32,9.31 -18.38,16.76 -36.18,22.96 -17.22,5.59 -40.76,10.55 -70.04,13.66 -29.28,3.1 -66.61,4.34 -112.53,4.34 -48.81,0 -87.85,-1.24 -117.13,-4.34 -29.86,-3.11 -53.97,-8.07 -71.77,-14.9 -18.38,-6.82 -31.58,-15.51 -40.77,-27.3 -8.61,-11.17 -15.49,-25.44 -20.09,-42.82l-175.11 -524.35c-24.7,-76.95 -50.53,-140.86 -77.52,-192.37 -26.98,-51.5 -56.84,-93.69 -89.56,-125.96 -32.15,-31.65 -69.48,-54.61 -110.82,-68.26 -41.91,-13.03 -88.41,-19.86 -140.09,-19.86l-99.33 0 0 943.83c0,13.03 -3.44,24.2 -10.33,33.51 -6.31,9.31 -18.37,16.76 -35.02,23.58 -16.65,6.83 -39.05,11.79 -67.18,14.9 -27.56,3.1 -63.73,4.34 -106.79,4.34 -42.48,0 -78.09,-1.24 -106.8,-4.34 -28.7,-3.11 -51.09,-8.07 -67.74,-14.9 -16.66,-6.82 -28.71,-14.27 -36.17,-23.58 -7.47,-9.31 -10.91,-20.48 -10.91,-33.51l0 -2224.62c0,-13.03 3.44,-24.2 10.91,-33.51 7.46,-9.31 19.51,-16.76 36.17,-22.96 16.65,-5.59 39.04,-10.55 67.74,-13.65 28.71,-3.11 64.32,-4.35 106.8,-4.35 43.06,0 79.23,1.24 106.79,4.35 28.13,3.1 50.53,7.44 67.18,13.65 16.65,6.2 28.71,13.65 35.02,22.96 6.89,8.69 10.33,19.86 10.33,33.51l0 882.4 99.33 0c50.53,0 95.31,-7.44 133.2,-21.72 38.47,-14.89 72.92,-37.85 103.92,-68.88 31.01,-31.64 59.14,-72.6 84.4,-122.86 25.27,-50.26 49.38,-112.31 73.49,-186.16l146.41 -468.51c5.75,-16.75 12.06,-31.03 20.1,-42.2 8.04,-11.79 20.67,-21.09 37.9,-27.3 17.22,-6.83 40.19,-11.79 68.89,-14.89 28.14,-3.11 66.61,-4.35 114.83,-4.35 43.63,0 79.81,1.24 107.94,4.35 28.71,3.1 51.1,7.44 67.18,13.03 16.64,5.58 27.55,12.41 32.73,21.72 5.73,9.31 8.61,20.48 8.61,33.51 0,15.51 -2.3,35.37 -7.47,58.33 -5.16,22.96 -13.77,53.37 -26.4,90.6l-145.84 417.62c-26.99,77.56 -53.97,143.96 -80.96,197.95 -26.99,54.61 -55.11,101.15 -84.97,139 -29.28,38.47 -60.86,69.5 -94.16,93.7 -32.73,24.2 -69.48,44.06 -109.66,60.2l0 1.24c44.78,21.1 85.55,44.06 121.71,70.12 36.75,26.68 71.2,59.57 103.35,99.29 31.58,40.33 62.59,89.35 91.87,147.69 28.7,58.32 58.56,129.68 88.99,214.69l178.56 488.37c18.37,49.65 28.71,83.78 32.15,103 3.44,18.62 5.17,34.13 5.17,46.54zm1818.9 -1574.92c0,132.8 -18.95,249.46 -57.41,351.23 -37.9,102.39 -93.59,188.02 -167.08,257.53 -72.92,70.12 -162.49,122.86 -268.7,159.47 -106.22,36.61 -231.39,54.6 -375.49,54.6l-182.01 0 0 750.23c0,12.41 -3.45,22.96 -10.91,32.89 -7.46,9.31 -19.52,17.38 -36.17,23.58 -16.65,6.21 -39.04,10.55 -67.17,14.27 -27.56,3.73 -63.73,5.59 -106.8,5.59 -42.49,0 -78.08,-1.86 -106.79,-5.59 -28.7,-3.72 -51.1,-8.68 -67.75,-14.27 -16.65,-6.2 -28.71,-14.27 -35.02,-23.58 -6.89,-9.93 -10.33,-21.1 -10.33,-32.89l0 -2116.65c0,-57.09 13.77,-99.9 41.33,-128.45 27.56,-28.54 63.74,-42.82 108.52,-42.82l513.29 0c51.67,0 101.05,1.86 147.56,6.21 46.5,4.34 102.19,13.65 167.64,27.3 64.89,14.28 130.91,39.72 197.51,77.57 66.61,37.23 124.02,85.02 171.09,142.73 47.09,57.71 83.26,124.73 107.95,202.29 24.69,76.95 36.74,163.21 36.74,258.76zm-461.62 34.75c0,-82.52 -13.77,-150.78 -40.76,-204.15 -26.98,-53.36 -60.28,-93.08 -99.9,-118.52 -39.62,-25.44 -80.96,-41.58 -124.02,-48.4 -43.63,-6.83 -88.41,-9.93 -134.92,-9.93l-189.47 0 0 800.49 199.8 0c71.2,0 130.34,-10.55 178.56,-31.03 47.66,-20.48 87.28,-49.64 117.71,-86.87 30.42,-36.62 53.39,-81.29 69.47,-132.8 15.5,-51.51 23.53,-107.97 23.53,-168.79zm2756.5 2156.38c0,12.41 -2.87,22.34 -8.62,31.02 -5.16,8.07 -14.92,14.9 -29.28,20.48 -13.78,5.59 -33.3,9.93 -58.56,13.03 -25.27,3.11 -56.84,4.35 -94.73,4.35 -37.9,0 -69.48,-1.24 -94.16,-4.35 -24.69,-3.1 -44.21,-7.44 -59.14,-13.03 -15.5,-5.58 -25.84,-12.41 -32.16,-20.48 -6.31,-8.68 -9.18,-19.23 -9.18,-31.02l0 -552.91 -1439.39 0c-39.62,0 -70.62,-12.41 -93.59,-37.23 -22.96,-24.82 -34.44,-62.68 -34.44,-113.55l0 -2140.86c0,-11.79 3.44,-22.34 10.9,-31.65 7.46,-9.31 19.52,-16.76 36.17,-22.96 16.66,-5.59 39.05,-10.55 67.75,-13.65 28.71,-3.11 64.31,-4.35 106.8,-4.35 43.06,0 79.22,1.24 106.79,4.35 28.12,3.1 50.52,8.06 67.17,13.65 16.65,6.2 28.71,13.65 35.02,22.96 6.89,9.31 10.33,19.86 10.33,31.65l0 1896.98 806.11 0 0 -1896.98c0,-11.79 3.45,-22.34 10.91,-31.65 7.47,-9.31 19.53,-16.76 36.17,-22.96 16.65,-5.59 39.04,-10.55 67.75,-13.65 28.71,-3.11 64.31,-4.35 106.8,-4.35 43.06,0 79.22,1.24 106.79,4.35 28.13,3.1 50.52,8.06 67.17,13.65 16.65,6.2 28.71,13.65 35.03,22.96 6.88,9.31 10.33,19.86 10.33,31.65l0 1896.98 191.19 0c28.14,0 47.65,6.83 57.99,21.1 10.91,13.65 16.08,39.1 16.08,76.95l0 849.52z"/>
   <path class="fil2" d="M14074.74 2951.39l-14079.44 0 -0.01 -1384.11 142 0 0 1242.1 13937.45 0 0 142.01zm-14079.45 -2009.5l0 -937.96 3833.83 0 0 142.01 -3691.83 0 0 795.95 -142 0z"/>
  </g>
 </g>
</svg>
